<mxfile host="Electron" agent="Mozilla/5.0 (Macintosh; Intel Mac OS X 10_15_7) AppleWebKit/537.36 (KHTML, like Gecko) draw.io/24.7.17 Chrome/128.0.6613.36 Electron/32.0.1 Safari/537.36" version="24.7.17">
  <diagram name="Страница — 1" id="7JvC0mq8nRDQfnARljbk">
    <mxGraphModel dx="1804" dy="1056" grid="1" gridSize="10" guides="1" tooltips="1" connect="1" arrows="1" fold="1" page="1" pageScale="1" pageWidth="1100" pageHeight="850" math="0" shadow="0">
      <root>
        <mxCell id="0" />
        <mxCell id="1" parent="0" />
        <mxCell id="_L-nnDZheV0n9lXBjIr9-11" value="" style="shape=table;startSize=0;container=1;collapsible=0;childLayout=tableLayout;fontSize=13;verticalAlign=middle;flipH=1;flipV=1;" parent="1" vertex="1">
          <mxGeometry x="260" y="350" width="600" height="420" as="geometry" />
        </mxCell>
        <mxCell id="_L-nnDZheV0n9lXBjIr9-12" value="" style="shape=tableRow;horizontal=0;startSize=0;swimlaneHead=0;swimlaneBody=0;strokeColor=inherit;top=0;left=0;bottom=0;right=0;collapsible=0;dropTarget=0;fillColor=none;points=[[0,0.5],[1,0.5]];portConstraint=eastwest;fontSize=13;verticalAlign=middle;" parent="_L-nnDZheV0n9lXBjIr9-11" vertex="1">
          <mxGeometry width="600" height="60" as="geometry" />
        </mxCell>
        <mxCell id="_L-nnDZheV0n9lXBjIr9-13" value="1" style="shape=partialRectangle;html=1;whiteSpace=wrap;connectable=0;strokeColor=inherit;overflow=hidden;fillColor=none;top=0;left=0;bottom=0;right=0;pointerEvents=1;fontSize=13;verticalAlign=middle;" parent="_L-nnDZheV0n9lXBjIr9-12" vertex="1">
          <mxGeometry width="60" height="60" as="geometry">
            <mxRectangle width="60" height="60" as="alternateBounds" />
          </mxGeometry>
        </mxCell>
        <mxCell id="_L-nnDZheV0n9lXBjIr9-14" value="Студент нажимает кнопку &quot;Создать задачу&quot; в интерфейсе веб-приложения и заполняет необходимые реквизиты задачи" style="shape=partialRectangle;html=1;whiteSpace=wrap;connectable=0;strokeColor=inherit;overflow=hidden;fillColor=none;top=0;left=0;bottom=0;right=0;pointerEvents=1;fontSize=13;verticalAlign=middle;" parent="_L-nnDZheV0n9lXBjIr9-12" vertex="1">
          <mxGeometry x="60" width="540" height="60" as="geometry">
            <mxRectangle width="540" height="60" as="alternateBounds" />
          </mxGeometry>
        </mxCell>
        <mxCell id="_L-nnDZheV0n9lXBjIr9-16" value="" style="shape=tableRow;horizontal=0;startSize=0;swimlaneHead=0;swimlaneBody=0;strokeColor=inherit;top=0;left=0;bottom=0;right=0;collapsible=0;dropTarget=0;fillColor=none;points=[[0,0.5],[1,0.5]];portConstraint=eastwest;fontSize=13;verticalAlign=middle;" parent="_L-nnDZheV0n9lXBjIr9-11" vertex="1">
          <mxGeometry y="60" width="600" height="60" as="geometry" />
        </mxCell>
        <mxCell id="_L-nnDZheV0n9lXBjIr9-17" value="2" style="shape=partialRectangle;html=1;whiteSpace=wrap;connectable=0;strokeColor=inherit;overflow=hidden;fillColor=none;top=0;left=0;bottom=0;right=0;pointerEvents=1;fontSize=13;verticalAlign=middle;" parent="_L-nnDZheV0n9lXBjIr9-16" vertex="1">
          <mxGeometry width="60" height="60" as="geometry">
            <mxRectangle width="60" height="60" as="alternateBounds" />
          </mxGeometry>
        </mxCell>
        <mxCell id="_L-nnDZheV0n9lXBjIr9-18" value="Фронтенд часть веб-приложения по протоколу https отправляет запрос с данными формы на бекенд" style="shape=partialRectangle;html=1;whiteSpace=wrap;connectable=0;strokeColor=inherit;overflow=hidden;fillColor=none;top=0;left=0;bottom=0;right=0;pointerEvents=1;fontSize=13;verticalAlign=middle;" parent="_L-nnDZheV0n9lXBjIr9-16" vertex="1">
          <mxGeometry x="60" width="540" height="60" as="geometry">
            <mxRectangle width="540" height="60" as="alternateBounds" />
          </mxGeometry>
        </mxCell>
        <mxCell id="_L-nnDZheV0n9lXBjIr9-33" style="shape=tableRow;horizontal=0;startSize=0;swimlaneHead=0;swimlaneBody=0;strokeColor=inherit;top=0;left=0;bottom=0;right=0;collapsible=0;dropTarget=0;fillColor=none;points=[[0,0.5],[1,0.5]];portConstraint=eastwest;fontSize=13;verticalAlign=middle;" parent="_L-nnDZheV0n9lXBjIr9-11" vertex="1">
          <mxGeometry y="120" width="600" height="60" as="geometry" />
        </mxCell>
        <mxCell id="_L-nnDZheV0n9lXBjIr9-34" value="3" style="shape=partialRectangle;html=1;whiteSpace=wrap;connectable=0;strokeColor=inherit;overflow=hidden;fillColor=none;top=0;left=0;bottom=0;right=0;pointerEvents=1;fontSize=13;verticalAlign=middle;" parent="_L-nnDZheV0n9lXBjIr9-33" vertex="1">
          <mxGeometry width="60" height="60" as="geometry">
            <mxRectangle width="60" height="60" as="alternateBounds" />
          </mxGeometry>
        </mxCell>
        <mxCell id="_L-nnDZheV0n9lXBjIr9-35" value="Происходит валидация запроса - проверяем, что все необходимые поля заполнены, а дата дедлайна по задаче больше или равна текущей&amp;nbsp;&amp;nbsp;" style="shape=partialRectangle;html=1;whiteSpace=wrap;connectable=0;strokeColor=inherit;overflow=hidden;fillColor=none;top=0;left=0;bottom=0;right=0;pointerEvents=1;fontSize=13;verticalAlign=middle;" parent="_L-nnDZheV0n9lXBjIr9-33" vertex="1">
          <mxGeometry x="60" width="540" height="60" as="geometry">
            <mxRectangle width="540" height="60" as="alternateBounds" />
          </mxGeometry>
        </mxCell>
        <mxCell id="_L-nnDZheV0n9lXBjIr9-20" value="" style="shape=tableRow;horizontal=0;startSize=0;swimlaneHead=0;swimlaneBody=0;strokeColor=inherit;top=0;left=0;bottom=0;right=0;collapsible=0;dropTarget=0;fillColor=none;points=[[0,0.5],[1,0.5]];portConstraint=eastwest;fontSize=13;verticalAlign=middle;" parent="_L-nnDZheV0n9lXBjIr9-11" vertex="1">
          <mxGeometry y="180" width="600" height="60" as="geometry" />
        </mxCell>
        <mxCell id="_L-nnDZheV0n9lXBjIr9-21" value="4" style="shape=partialRectangle;html=1;whiteSpace=wrap;connectable=0;strokeColor=inherit;overflow=hidden;fillColor=none;top=0;left=0;bottom=0;right=0;pointerEvents=1;fontSize=13;verticalAlign=middle;" parent="_L-nnDZheV0n9lXBjIr9-20" vertex="1">
          <mxGeometry width="60" height="60" as="geometry">
            <mxRectangle width="60" height="60" as="alternateBounds" />
          </mxGeometry>
        </mxCell>
        <mxCell id="_L-nnDZheV0n9lXBjIr9-22" value="Записываем данные в БД PgSQL" style="shape=partialRectangle;html=1;whiteSpace=wrap;connectable=0;strokeColor=inherit;overflow=hidden;fillColor=none;top=0;left=0;bottom=0;right=0;pointerEvents=1;fontSize=13;verticalAlign=middle;" parent="_L-nnDZheV0n9lXBjIr9-20" vertex="1">
          <mxGeometry x="60" width="540" height="60" as="geometry">
            <mxRectangle width="540" height="60" as="alternateBounds" />
          </mxGeometry>
        </mxCell>
        <mxCell id="_L-nnDZheV0n9lXBjIr9-30" style="shape=tableRow;horizontal=0;startSize=0;swimlaneHead=0;swimlaneBody=0;strokeColor=inherit;top=0;left=0;bottom=0;right=0;collapsible=0;dropTarget=0;fillColor=none;points=[[0,0.5],[1,0.5]];portConstraint=eastwest;fontSize=13;verticalAlign=middle;" parent="_L-nnDZheV0n9lXBjIr9-11" vertex="1">
          <mxGeometry y="240" width="600" height="60" as="geometry" />
        </mxCell>
        <mxCell id="_L-nnDZheV0n9lXBjIr9-31" value="5" style="shape=partialRectangle;html=1;whiteSpace=wrap;connectable=0;strokeColor=inherit;overflow=hidden;fillColor=none;top=0;left=0;bottom=0;right=0;pointerEvents=1;fontSize=13;verticalAlign=middle;" parent="_L-nnDZheV0n9lXBjIr9-30" vertex="1">
          <mxGeometry width="60" height="60" as="geometry">
            <mxRectangle width="60" height="60" as="alternateBounds" />
          </mxGeometry>
        </mxCell>
        <mxCell id="_L-nnDZheV0n9lXBjIr9-32" value="Отдаем на бекенд данные успешно записанной / измененной задачи" style="shape=partialRectangle;html=1;whiteSpace=wrap;connectable=0;strokeColor=inherit;overflow=hidden;fillColor=none;top=0;left=0;bottom=0;right=0;pointerEvents=1;fontSize=13;verticalAlign=middle;" parent="_L-nnDZheV0n9lXBjIr9-30" vertex="1">
          <mxGeometry x="60" width="540" height="60" as="geometry">
            <mxRectangle width="540" height="60" as="alternateBounds" />
          </mxGeometry>
        </mxCell>
        <mxCell id="_L-nnDZheV0n9lXBjIr9-27" style="shape=tableRow;horizontal=0;startSize=0;swimlaneHead=0;swimlaneBody=0;strokeColor=inherit;top=0;left=0;bottom=0;right=0;collapsible=0;dropTarget=0;fillColor=none;points=[[0,0.5],[1,0.5]];portConstraint=eastwest;fontSize=13;verticalAlign=middle;" parent="_L-nnDZheV0n9lXBjIr9-11" vertex="1">
          <mxGeometry y="300" width="600" height="60" as="geometry" />
        </mxCell>
        <mxCell id="_L-nnDZheV0n9lXBjIr9-28" value="6" style="shape=partialRectangle;html=1;whiteSpace=wrap;connectable=0;strokeColor=inherit;overflow=hidden;fillColor=none;top=0;left=0;bottom=0;right=0;pointerEvents=1;fontSize=13;verticalAlign=middle;" parent="_L-nnDZheV0n9lXBjIr9-27" vertex="1">
          <mxGeometry width="60" height="60" as="geometry">
            <mxRectangle width="60" height="60" as="alternateBounds" />
          </mxGeometry>
        </mxCell>
        <mxCell id="_L-nnDZheV0n9lXBjIr9-29" value="Отдаем фронтенду json с ответом" style="shape=partialRectangle;html=1;whiteSpace=wrap;connectable=0;strokeColor=inherit;overflow=hidden;fillColor=none;top=0;left=0;bottom=0;right=0;pointerEvents=1;fontSize=13;verticalAlign=middle;" parent="_L-nnDZheV0n9lXBjIr9-27" vertex="1">
          <mxGeometry x="60" width="540" height="60" as="geometry">
            <mxRectangle width="540" height="60" as="alternateBounds" />
          </mxGeometry>
        </mxCell>
        <mxCell id="_L-nnDZheV0n9lXBjIr9-24" style="shape=tableRow;horizontal=0;startSize=0;swimlaneHead=0;swimlaneBody=0;strokeColor=inherit;top=0;left=0;bottom=0;right=0;collapsible=0;dropTarget=0;fillColor=none;points=[[0,0.5],[1,0.5]];portConstraint=eastwest;fontSize=13;verticalAlign=middle;" parent="_L-nnDZheV0n9lXBjIr9-11" vertex="1">
          <mxGeometry y="360" width="600" height="60" as="geometry" />
        </mxCell>
        <mxCell id="_L-nnDZheV0n9lXBjIr9-25" value="7" style="shape=partialRectangle;html=1;whiteSpace=wrap;connectable=0;strokeColor=inherit;overflow=hidden;fillColor=none;top=0;left=0;bottom=0;right=0;pointerEvents=1;fontSize=13;verticalAlign=middle;" parent="_L-nnDZheV0n9lXBjIr9-24" vertex="1">
          <mxGeometry width="60" height="60" as="geometry">
            <mxRectangle width="60" height="60" as="alternateBounds" />
          </mxGeometry>
        </mxCell>
        <mxCell id="_L-nnDZheV0n9lXBjIr9-26" value="Отрисовываем в веб-приложении информацию о том, что задача успешно создана или изменена, что все данные сохранены" style="shape=partialRectangle;html=1;whiteSpace=wrap;connectable=0;strokeColor=inherit;overflow=hidden;fillColor=none;top=0;left=0;bottom=0;right=0;pointerEvents=1;fontSize=13;verticalAlign=middle;" parent="_L-nnDZheV0n9lXBjIr9-24" vertex="1">
          <mxGeometry x="60" width="540" height="60" as="geometry">
            <mxRectangle width="540" height="60" as="alternateBounds" />
          </mxGeometry>
        </mxCell>
        <mxCell id="_L-nnDZheV0n9lXBjIr9-36" value="" style="shape=image;verticalLabelPosition=bottom;labelBackgroundColor=default;verticalAlign=top;aspect=fixed;imageAspect=0;image=data:image/png,iVBORw0KGgoAAAANSUhEUgAAAxkAAAGQCAIAAABNoTqRAAAAAXNSR0IArs4c6QAAAERlWElmTU0AKgAAAAgAAYdpAAQAAAABAAAAGgAAAAAAA6ABAAMAAAABAAEAAKACAAQAAAABAAADGaADAAQAAAABAAABkAAAAADF30t6AABAAElEQVR4AeydCfxM1fvH/5ZkSUjWiOypEG1kDYlCoZQSsoRUwi/tSSpE+qHsW6ulaFEpRBRFRIudkH1fEmX7v3n6nab5zlzfZWbMzPdzX71u557znO19L/fjOc89k+bkyZP/p0MEREAEREAEREAERCBZBNImq5YqiYAIiIAIiIAIiIAInCIgLaXnQAREQAREQAREQASST0BaKvnsVFMEREAEREAEREAEpKX0DIiACIiACIiACIhA8gmkT37VRNT8/vvFM2fO3L9//4kTJ9OmTZMtW7ZatWpWqFA+EVVlIgIiIAIiIAIiIAIxQCBNmL7jW7Vq9dix44oWLVWzZr106dIZiePHj8+c+cnatStbtWpRvHjxGMCjIYqACIiACIiACIiAJ4GwaKkvv5zNf/ff/0iwrocNG3DDDdX57/90iIAIiIAIiIAIiEAsEwh9vBQeKW8hBS5kFjarV6+OZXQauwiIgAiIgAiIgAiEYU+EMWPGeXikHHJssHSXSoiACIiACIiACIhALBIIsV9q8eLFxYqVSiSIokVLLlq0OJHGMhMBERABERABERCBKCQQYi01ffpMgs0TOc+aNW+eMWNmIo1lJgIiIAIiIAIiIAJRSCDEWortD9xXe2ecLZbYn9FMBiIgAiIgAiIgAiIQtQRCrKXYRypJU02qfZIal7EIiIAIiIAIiIAIhJtAiLUUG3ImacRJtU9S4zIWAREQAREQAREQgXATCLGWyp49OxtyJnLQWLITeiKNZSYCIiACIiACIiACUUggxFqqZs0bZs78NJHzxLJmzZqJNJaZCIiACIiACIiACEQhgRBrKX5rb+3aFYmcJ5ZXXaXf5kskLZmJgAiIgAiIgAhEI4HQ/4bMypWr33zz7TNu18nPyNx7790lSuhX+aLxsdCYREAEREAERCC2CMybN48Bz58/n7OlbfyVKlWyRMWKFUm4S8sMyTn0WophzZr11cyZszzklH6PLyQ3T42IgAiIgAiIQGomgGZCPHHm8OVQocI1vpeLFi3wvUROcSCtOPvmJzsdFi3FaPBOjRs3rmjRUmzd6XacIticGKk1a1a0atVCHqlk3zNVFAEREAEREIFUTgDx1L9/f5NQppzatu0Ek/Ll/6WifCktXrzARJVLnNZUlbp27eprlox0uLSUDYWfiJk588t9+/Zt2bI1f/58fLVXu3bN8uUVI5WMO6UqIiACIiACIiACp9bvGjduDAgkFPrJQzx5wxoxYrATVd26dUuJogqvlnLTQDymZJSuHSVEQAREQAREQARSLQFUFFoqhSrKjx6iiv+QU8le9Uvv16IuRUAEREAEREAERCAKCZiQGjr0jWT7ogJOyhYH+/XrZ0t+AW28M0O8J4J3ZyoVAREQAREQAREQgWQQsOiokAspGwlyipbd6mFShyctlVRishcBERABERABEYgoAYQUfqOUREedcbj4umgfOcVxRmM/A2kpPyC6FAEREAEREAERiDoCFiMV1mGhpegF3ZbUXqSlkkpM9iIgAiIgAiIgAhElgFMqtDFSHqM/ceKkR2nAImmpgFiUKQIiIAIiIAIikOoI4Jr69ttTm38maeYp/Y6P/my/du9eUZTeBlaa7M8RE9O4bERABERABERABGKOgCkbVt8iMHK/HdIT2WNKtVTiPyDU/lKJvCUyEwEREAEREAER8CPAFlBDhrzhlxkll1rji5IboWGIgAiIgAiIgAicZQLshJ6MEUhLJQOaqoiACIiACIiACESUAKtvuKbC2iXtJ2+NT1oqrPdFjYuACIiACIiACISGAFoneX6jxHRPy7SfvKgsaanEEJaNCIiACIiACIjA2STAvuQInfbt7w2HdwohRcu0z3d8yZhkSmPPk9GlqoiACIiACIiACIhAUgkgdMqX/3ulL3miJ2GP5o5iaQ8hRWx78vxe0lIJwSpHBERABERABEQg6giwXaft2Ilrytbj7IdfkjdQp6KonsKf+ZOWSt4tUC0REAEREAEREIGzQACPFP+hpUwMOVHFUPAteWyPbj4n7LG0GHPsU6iibP7SUmfhOVCXIiACIiACIiACKSFga3zII1SRiSpaGzHi7yYRSb6N+32dRynVvYWXb/UzpqWlzohIBiIgAiIgAiIgAtFIwK36MThzOznZZJc2aBNeJrA8HFfJnqG0VLLRqaIIiIAIiIAIiEC0EDCRFA6pdMYZak+EMyKSgQiIgAiIgAiIgAgEJSAtFRSNCkRABERABERABETgjASkpc6ISAYiIAIiIAIiIAIiEJSAtFRQNCoQAREQAREQAREQgTMSkJY6IyIZiIAIiIAIiIAIiEBQAtJSQdGoQAREQAREQAREQATOSEBa6oyIZCACIiACIiACIiACQQlESEvNmzcv6BBUIAIiIAIiIAIiIAIxSyASe3X279///fffR05VqlQpZkFp4KmawLFjJ779dn7atGlincLJk//HH8M0MT+PWL8PKRq/nsYU4VNlEQgDgbBrKYRUxYoVbeSku3btGoZZqEkRCCOBOXO+7tevX+vWD4Sxjwg23bPnS9WqVa5evUoE+1RXISOgpzFkKNWQCISOQHi1lAkpc0fZWXIqdPdOLUWCAD6A2bPnvvbauEh0FpE++IGFBx5oUa1aFXmnIsI7lJ3oaQwlTbUlAqEjEMZ4KWQT4/Rd17O0YqdCd/vUUtgJfPfdt2XLXhX2biLbQZs2nebPVwhjZKGHojc9jaGgqDZEIPQEwqWlTDAlXNEjZz5/iysUPfS3Ui2GhUBcOm9OEjalIwYJ6GmMwZumIacKAuHSUgimhELKiEpOpYonS5MUAREQAREQgdRBICxaCrdTMCFlVE1OpQ7CmqUIiIAIiIAIiEBsEFi0aAED9Q1PSsy4Q6+lEFKJGQRyygKqEjNK2YiACIiACIiACKROAoiK666rOGLE4Kidfoi1FPIoMULKcLBXguRU1D4ZGpgIiIAIiIAIRAmBiG3vt3jxgm7duiV11qHUUggjt5VUYsaB6pKcSgwo2YiACIiACIhAaibAWharb+F2TdG+rfElFXXItJR5mBLvlLKBSk4l9YbJXgREQAREQARSGwHUAgdaB79RmOZOy7SPU8o74Dtg76HRUsF2QAjYpV8mdMjRLgl+WHQZ5QTWr1+3du1qN8jDhw8vX/7L7t07Xc727dvIOX78uMvxS7AxwZIli/bv3+eX73tJKY142/jaK506CfAs8Zy4/9auXfXXX38mG8WmTRu3bt2S7OoBKzKeH374nj8mAUuVKQKJIcCP0SEY2re/NxzeKYQULdN+MoQUgw+BlkIGeeyAkBhADF2bTiUGlGyih0C/fi/UqHH1sWPHbEhffPFJnTrX9+nT043w6ae7NW5cx2Mnp+PHjzVoUHPhwm9dlYSJ/v1fpFnOCYuUIwKOwJEjR3hO3H81alxTrFieQYP6OYMkJXr1euq//+2TpCpnNN6xY3vDhrX4F8gZLWUgAh4EUAv4jdBSIZRTqKgOHe41IYVc8+jdoygEWiqFQsoGlzwl6DExFYlAWAlUrlyd9letWmG9zJo1g8T06dNOnDhBgvPXX8+uVq1W+vTJ/5kmXpDvvffOeeedxzklbgYboc5xT+D5519ev37PunW7Fi9edeON9V5+uZd7PuN+7ppgKiFgfiOTU9dcUwoNlBJR5VQUMVKoqGQLKeCnVEvhlAqVDIKRVvpSyZ+HOJjmddddzyz4o8iZhbwvvpjasmU71vhWrFhGzrp1q3///fcqVaqT5tiw4Vf+0XPttaXvvLPBp59+aJl2/uWXH5s2vaV06QIUsUbjWzRz5jQaGTx4FOevvvrSFU2ZMvHJJ7uOHTscP0TlyuVef32ArSTiJGvR4vb33x/fsWOrK68s3rx547VrV7laSsQ9gbSnD+T7hRfmbtCgMfM9eHC/zXr27BkdOrTkqeAJeeedf35ccvPm39q0acbjx0M4btwIPzcq/yR46aVn7777NlvyC/gY00KTJnVpn+eN9lu2bLpt21brlH8MPPfc49WrX0XRl19+Eff8NcGIEUB1bN26FUV17rnp0VJOVJG2v5ODjYRS00+IMGrx1zItIKFoDQUSrFZi8pP/j2ZrPYXd+w0xtK35Na5LEQghgcKFi+TMmWvBgvn33HPfsmU/IXdatGj7+edTcUeVLn354sXf09e1157SW7t376pbt8oFF1x4//0P4Sdo377Fa6+Nrl+/kQ2G9TtcCG3bduJvAdYEFyxYft55Wa1o4sS3a9W6qUaNGy++uPDkyRNq165r+Rs3rn/zzVFFihS77772a9as6t37uYwZM5H+v/87OWvWdP679942Xbo8NmrUkCZNbv7mm6WZM2e2ijrHNwEUDw8YAmjz5o2vvPJSvnz5y5U79VOSPDD33tvkhhvqPP10L0L0Hnvs4auvvrZ48VJonUaN6mTKlPmpp07lP/30f84/P9ttt91hlNBVKKExY4a99dZkmgr2GB85cpg/BbTfvv1DxYuXHDny9Z49n3j99TE00qVLh6lTpzRqdGe6dGmfeirJH5nH983S7FJOAEXFgQvGYoT4K5Q2R4z4u+EKFa7x7cLv6zzEBlKMnQRCpTpSqqV8x6q0CKQqArVr38SiHlOeO3cWL5uiRYvXqlX3yy+/aNeu0/fff4vSIodS/rmP0po79wdyuNyxY9uYMcOdlkL39Op1Kq6latUat91Wh7gr3j1c8o97VNHQoW+kSZOmceM7BwzoTQR6tmzZKbIDQXbZZWVI79y5Y9iwgae11KmSm266xRq86qrrcFxNm/Zxo0ZNrYrO8U1g8OD+/OfmiKP0xInj6dKl27lzO0/FoEEjzz03I/4qloxnzPgcLfXxx5ORX59//s2ll17WrFlL3E7fffeNaSkE2QsvPI2QGjduUtWqN9Cm92P82GPPduz4iHX9xRefkiA0CiH1+OM9OnTozGW+fBcNHPiyGegsAiEkgBjiQFTRJrqKM9LK2rdLS6OcSNi2TdhbZgjP0lIhhKmmUhcBQqbGj3+Tj554M9WuXY/Jk4PHCOU0b95clJbhWLp0MTFPw4e/Zpd79uxetWq5I2UvKi7Lli3PeePGDVb0wQeTSGzZsumdd8YeOHBqpeazzz6+887mVsrZhBSJ66+v+sknH/z55xHemqcvq5kNL0j6xSdhlzrHPYFu3Z68/fa7mebevXtmz56Ow7JcuQoo6QoVrn388QtHjx72669reBp5PnFhYrZ69QqekFKlShuZCROmOkQ82KTRW1Wq1LBM78f42mv/fjkVLFhoz55dVFm27GfOFlZIolKlqtJSRlLn8BEwkeSkkgms8HXn23JK46V821JaBFIVAVvC+/LLL/BC2SvHgqg++GAiCub66//WNIinc8/NdOjQ7/bf5ZeXbdKkmQOFA8DSadOm48VmaZZXxo9/g0u81v/9b18LsWLJz9Vi1c+ljx49Svro0b+/KMyR4wIrsm8MTWA5YyXimAC3Hv8o/7HKjJfommsqfvjhe8x30aLvqlWrMGHCm5kyZbnvvg7uMUNysfSM4zMgkzZtOiK2kPJW6v0Ys8psZq61gwcPkJM7d17Lz5YtmyV0FoG4JBDYL3Xo0KG5c+du3ry53Okj5X8dL126NG/evHny5IlLiJpU6iSQJ09egpZ69+7B9E1F8TLDvfTii8+QY0qLBCt9a9eu6tmzL5HBXH755ee//baRhB34qFh/IY0NDoNChS4hzU4869atIU7Fea0IfiJ4BYlmKooEW/VkynTqBfbNN1/x+uQFeezYKVFFRc4cK1cuo0FGaJc6pyoCfI7w228b7CEcN24k68vTpn2dMWNGYqT+859OhqJAgYt5kHbv3pUz54XkPPRQW1biWJUjffvtzZ555kVWAIlzqlPnFh5178fYGvQ9FyhQkEvCsOrUuZnE999/51uqtAiEhMDu3bsRKq6pQoUKOdW+Zs2aP/74w4qQ+BSdf/75zjLkiQB+qYULFxYpUqRu3bpPPPHEVVddlSNHjj59+riOiXgfP368u0xk4pZbbknJ14b9+vX79luvbXgSOQyZiUBoCdxww43olfLlr3aRTJaDgsmbN5/11aBBI2z69n2eL54mTx7fqVNrVu7cMNininD1zZs3DRrUHz1kAeb8ISNdqVIVZ0Z8OumPPvpn75Pnn3+SV91bb40mPMVFX2EzfPgg9qzik8AXX3yWRnBOuEaUiG8CP/20hIVg/hs+fHClSlfweDRseOprPh7FP/88TKAe69FPPtmFHP61jEP0lltuI00OH5++/fYYlpVLlixliM455xwSxKRzRsRz9n6MrZbvmYVFBNywYYN4tpH7I0b8vcbta6O0CKSQAGqkrM+RPXt2rhYvXkyzzZs3dyVlypRBY91xxx38VZzCHoNVD6Cl7rzzzuLFi2/ZsmX79u0sHzzyyCOPPfbYvNMhXbQyefLkd955J1hzYcrv2bOntFSY2KrZlBAgCoTqNWrUdo1YgAiKyuXw/VSXLo+zc0HFild07tz+mmuuf/jh7qdLT62t8KVes2a3Vqx4+YwZnw0f/hYf8RH5NGXKBAJf0qc/9T6zgzAUFgffe+9du0QksXDDJgtPPNHl5ptv7dr1yf8Z/l+pUpc3bnwTUedr1qz8739H5MolZ7BjE+cJgpzuv785/7HZJh4mvk6oWfNU0B5x5ay1sX1GpUpljh8/gc+J0KWvvpqJq2nAgKGffvrRjTdW6tfvRYLEb73174/4/u//Tj2cF11UgKByQsjnzPky+GP8L6pujQ8f2IgRb65Y8TPP9l13NaxZsw52rvRfdXQhAikjgGsKF9TevXsXLFiQL1++ChUq/PLLqf1lbr/9dhy0HHv27HnppZcmTZr09ttvp6yroLXT+G0owoCyZMnSvn37IUOGWCV03KOPPtqsWbPKlSs/z2ZwL5/6FuOmm26aOHEiumr48OHTpp36lInjgQceKFWq1IMPPmiXr7322rhx40jffffdOJYef/zxjh07ckmDTz75JLX4w4ZO7N69u+1niGBiMZF/Lb311lvkYEyD2N96660ffvhhgQIFaJmRWOM6i0BkCPCviJ07D5Uvf00Ku+MrPL5sYuMf3k9+TbFat2XLb6zu+YonPxvfSyKoJk165+uvl9Bg9uw5+M9KWeMrUiTXkCFjee1t2rShWLGSwV5d7LCSK1cWF6Hp27jS0UwgJU8j2jpPnnxZs55a5uAHjnLmvND+4mUb2C1bNiPWExPL4fEYB+TGPwzYtiN//gIujC+hmZ7GhEyUk0gCyIxOnTohlVhAsyoHDhxALbCwtnHjxoIFCyJULH/Tpk1c9u7dG8mRyMaTZOYfL8VWNOXLlx86dCgJRnPdddfxL+DXX3/dGuUvX1xWrLjfdtsp5/DWrVs///xz1x9BURkyZLBLWmCG11/PXoKVn3766YMHD1o+0q1evXpLlizp3LkzWgpRhaK09leuXInHq3Tp0g899NDAgQOpXq1atcsv5x/ZjdFS154+XF9KiEBsEWAR0L7USzhswp6KFi2RMP+MOexxFdCGBvkCK2CRMlMtAbS1mzvxTy6dIcO5wR4kZ+MSHo+xs/FNsAuD++DUN19pEQgTAYKikC7ff/997ty59+3bZw6qHTt2DBo0iB4bNWoUpn79tRTdoOPwIb1y+uCyevXqfFhIwBPpmjVr4nlCGN11110eA0IwPfvss3Xq1DGX1Q38M7nOKQcvx8yZM4lqRxs1aNCAS/7S79KlC843ixfLmjUr//Ai3bRp01y5ckEBLcWqJw4qNBnS6nQbOolAqiaQJct57vOof4NIkzNnLt5e/87UlQiIgAikIgL4pZAxaKnp06cjIdzMce64yHSXGapEAC1VtGhRxsHS49dff/3ZZ5+x2Dd79uwPPvigYcOGieyVQCtkIOuAZs8EXEU8UqRRVGgmEuvWreOML+6KK64ggRvMpnrhhae+KyFEn7MOERABXwJ8rM5/vjmWZsnmhx9WJ8xXjgiIgAikHgJETRBsznxxUBGGRIKPLX744Yd27drxRd3IkSPDgcI/9vznn3/u1asXIU2sPtavX5/VNxby6NgtOnoMwiwx2L9/P2dCwMyYtTwcTpZGopEgpB3nFgfOJ+KiWEa0UpewS51FQAREQAREQAREIJEECLn++OOP8ctgj6LAR8VRsmRJPqpj6/NRo0YRpJTIppJk5q+lWF8kvOmrr75yrbAvVIkSJWw/QJdpCQtdtCKC1s3JRBERXpy/++7vDUXQZ8gmq8JuCyRYsyNkjKNDhw444jisVGcREAEREAEREAERSB4Boq4JM69S5Z8NZVw7GzZsQGzYfh8uM1QJfy1F4Dly57777mN1b9u2bcSD4xNbtWqVhTfRK04mMlmVI03sFOennnoKtWTf6NmwiFvnAz08acipFStW+IbN43PDhnisn376acaMGXzi99FHH/HloFUMdiasCnst+QXjo3wREAEREAERSJ0EiMBmVwH2mnr44YcJsOZ7NXYeAMX69evJ5xg9ejQh15xbtGiRmO9Vk4HRX0shg6ZMmYJPjK/tWKRDLTFK9kG45557rHWC0JFWFgKFG411wL59+xLttGvXLi7dN9gDBgzgiz9yLr30Uiri2bKi/PnzI54IwGI5s3bt2njb2AEh2Lhda23atIGCryYLVkX5IhBaAsePn7T9ykPb7NltbcmS76+7ruLZHYN6TwYBPY3JgKYqcUzAREKrVq3QT3wSx68a893b2LFj+UsbzcTG4+RztG7dmviiHj16vPjii2Gi4b+/lHXDiiOeJ7brLFasWMIFOBbs+FLPbcdOmDmDzpkzp98Q2SALDxbirHDhwn5FhIbhrzr33HPRaol8UdEprjm8Yn5N6VIEwk1gxoyvSpYsF+5eItn+ypVLatXSV7GRRB6yvvQ0hgylGhKB0BEIrKVC175aEoGYJ8C/HHr3fplzzM/k9AQqVqxUpcr16dP7+6TjY3ZxPws9jXF/izXBWCQQIS3122+/WUB6LDLSmEUgMgT0xyQynNVLYgjoaUwMJdlEOYGIPcaR+LcpW0kxnygnruGJwNkloD8mZ5e/evcloKfRl4bSsUsgMds5hWR2kdBSIRmoGhEBERABERABERCBKCQgLRWFN0VDEgEREAEREAERiBkC0lIxc6s0UBEQAREQAREQgSgkEOD3+EI+yosvvjjkbapBEYgzAvpjEmc3NKano6cxpm+fBu8I+P4csMsMRyJC3/GFY+hqUwREQAREQAREQATOOgGt8Z31W6ABiIAIiIAIiIAIxDABaakYvnkaugiIgAiIgAiIwFknEJZ4KX49hsN7bvzsDIe3jUpFQAREQAREQAREIMoJhCteit9Fdr9MnBABP4OwdevWhPnKEYFUS8D2s9XPA6TaByCqJq6nMapuhwaTbALffPNNZMLPw+KXsmnz08jB5o/SClakfBFInQT09kqd9z06Z62nMTrvi0aVVALffvttZLSU4qWSemtkLwIiIAIiIAIiIAL/EJCW+oeFUiIgAiIgAiIgAiKQVALSUkklJnsREAEREAEREAER+IdAGOOl/ulEKREQgTMR0E7TZyKk8sgR0NMYOdbqKZwEIhMsxQzC+B2fx5d6xJ57lIYTrNoWAREQAREQAREQgVAS0BpfKGmqLREQAREQAREQgdRGIBq1FB8xXnbZZWPGjEltN0PzFQEREAEREAERiDkC0RUvNW/evPnz57/66qubNm3atWuXN002/Ey4HWjATNoJlh+wiyQZB2zBMgO2EzAzWCNJMg7WiPJFQAREQAREQATCRyC6/FLjx4/v27cvQsp7wn/++We3bt2yZcuGlrr//vv/+OMP7Ddu3HjrrbemTZs2T548lB4+fJhMLB988EHMyG/atOnevXut5Xr16l3zv6Ny5cqWSWmTJk3MuGrVqsuXLyf/4Ycf/p/h3///8ccfu3fv/sorr1itgOdhw4YxDDqlceyxQRU98cQT559/PpklS5b88MMPXcWAg1m6dGnFihUxZjz33nvvwYMHse/SpcvgwYOt4owZM2rWrEm6ZcuWL774omUShcYo2enVLnWOIQLsjmgbJMbQmDXUeCWgpzFe72xqm1fE3obRpaUGDhy4fft2pwyC3fVevXq9+eabkydPnjp16gcffNCvXz9+/q9+/fq4shYsWDB69GhKe/ToQfWRI0dOnDhx1qxZrBvOnj2b9q3Nr7/+uk6dOk8//XStWrUc6z59+vzwww+LFi1atmzZoUOHnnzySYzvuusuzK699toVK1aQ4OBXPlauXOnx2kMGtW/fvnfv3r/88st5553XsWNH2pk2bdpLL7307rvvrlu3rnr16s2bN3c/WRhwMPfddx8R+qtWrWJ4TGfcuHE0whhcv7t37164cCGZl156KX0dO3aM9EcffYTNlVdeSVpHbBHQ2yu27ld8j1ZPY3zf39QzO179kZlsdK3xJXLO/z19IIOwHz58+M6dO5EvuH9QHsWLFyfz+eefxzWFNrrqqqvwAF133XV4rZA1GTJkoBQRg5unbt26lSpV8u2xcePGd999d6lSpfj1m0KFCtmXhtTFBuGCJkOuOfu1a9d+8cUX6dOnxz5//vwunwTOJzpt0KDBgQMHSJ84cYJMfFFIOtxdO3bsKFy4MAM4cuRIlixZgg0GvViuXDl8b0ePHi1QoAASk0YuvPDChN8/3nnnnY899hiSq1q1ajj2UGmZM2f2HY/SIiACIiACIiAC4SMQe1oKWYMQKV26tEFp2LAhCVsyK1asmGXiqsEGKYM/iZxGjRpNmTKFhC2K2Q8F5s2b14zdGdWCP2nx4sVZs2bNlClTkSJFXFHCxHfffYcYQuKg4fA2IWiczSWnj9dee61Tp05kDho0iHPGjBlZFqxRowZp35aDDWbz5s3t2rVjuRPj/fv3W+Ms9tWuXTtdunSot+nTp1smsu+GG254//330ZH43vB+Wb7OIiACIiACIiACESAQXWt8iZkwvhzMXOTTnDlzJkyYQHASmdu2bbMWECIkkEQIHSxZI8Odc8cddxBvRP6SJUs4J9yMjoAqgo1YKESEdejQwZoKdm7WrBl+KfxhCCbcZL5mrOKhgVq3bo3s69+/PwFbv//+O2uODG/NmjUETuFLc/YBB7N+/fq2bdtShVAwHGBlypQxe7Qgi5i4uPCx+S7ktWrVauzYsSx6IrxMPrr2lRABERABERABEQgrgdjTUjh48M0Qgk1cOWIFzUF4U9myZXPnzk1IOKrl119/ZY2PpS6itjnjaoIgQdyIJFbcWBBktY6Vuw0bNiBTzC2EdmElDgFUokSJnDlzEnU+atSov/76ywM9Tql9+/axdEjsFFV8LYcOHcpyG2NjqPY1ImuLLO3hTMJjtWfPngEDBmBPhFOwwWCDAZPCPUZMGOt3+MzIYUZXX301K3qPP/44vijXKeuJ+OEQbUTiY+PylYghAoj7hPo+hsavocYTAT2N8XQ3U/NcIrbv+anvy8JxsILm0ax3qa1S8UFfsBZWr16N6LHngxBylsCwZDMF5JRlEtyNE4hMFuzcghqJn376CXdRwgcLDxbGRHBTRCMcXbt2Jd2zZ08bA5tdkWlpzrawaO1wq9BerogESsgJHVomholMPrvDnkvOaD4SDDLYYFBOFpuFWfny5e+55x5qzZw507cXmqXU5bRo0QIbIkZdjhIiIAIiIAIiIAIRIBCrvyFDyDaKCjFx0UUXoSHswLeEh4lFQFvys0ws8R5RRMQ3kUZt2rTBO+W7owEqh4Aq1vWwR4HhbSpatOg555zD+hpnjr9bT+L/WFVE5BHMhG/JquI6QuvwGSDDxq3F3cWT5DEY3Ga403BlUZ2mqMVlsFGwdwNAPv3002AGyo8wAdsszUR5hLtWdyIgAiIgApEkEHux50YHVcQHdH6kkBrOC+WKsDQ5Yjms7rH05kpJILzM8UMahxmHlabwazh2NODw7Qgx5ELmbQzeg0HSuep80OfSfgkkF5H1bPfAaqBfkS7PIgEcpezWwcEnpVJUZ/FGqGsREAERCDeBWPVLhZtLDLXPOuZTTz1VpUoVgqhiaNipYah8eTBixAj7DJMvG3BJSlSlhvuuOYqACKQ2AtJSqe2Oa74RJeArp9BSLPIGc1NRxMiwiej41JkIBCKgpzEQFeXFHgG+3IpM+PlZW+NjY8zYuy0asQgknYD5pahn7ye38EcOXiu34mw717P7q28PtmWGb47SIhABAtJSEYCsLiJAgH3P41xLabEjAo+RuogGAgSh+w3jsssu48cW2XYfXfXWW2+5zdJ8zXLkyOG7z75vkdIiIAIiIAJRReBf/wiO5Mj8fr8lkl2rLxGIGAH7pSO64+sBHFQ89vwrwvfh52eOIjYYdSQCIiACIhAOAmdNS4VjMmpTBKKKAEKK37dmSDii2KvMV0JF1Tg1GBEQAREQgZQQkJZKCT3VFYGgBDp37oyQSuiIClpBBSIQNQS0BX/U3AoNJEUEIhMsxRD1HV+K7pMqi0BKCLADGXu6BmvBuzRYLeWLgAiIgAhEmEDQfbQjPA51JwIiIAIiIAIiIAKxSEBaKhbvmsYsAiIgAiIgAiIQLQSkpaLlTmgcIiACIiACIiACsUhAWioW75rGLAIiIAJhJMBenbZdZxj7UNMiEH4C7Hse/k5O9SAtFRnO6kUEREAEYoaAtFTM3CoN1JMA+557loesUFoqZCjVkAiIgAiIgAiIQCokIC2VCm+6piwCIiACIiACIhAyAtJSIUOphkRABERABERABFIhAe17ngpvuqYsAiIgAl4EtO+5Fx2VxQ6BiO17Li0VOw+FRioCSSEwYcKEPHnyVK9ePSmVZCsCpwgUKFBAIEQgDghcd911kZmF1vgiw1m9iEDICBw7duy5556rWLFihQoVunTpsmfPnoBNv/nmm9OnT09Y9MMPP/Bby0eOHLGidu3aDR48OKGZckRABERABBJJQFoqkaBkJgLRQuA///lPjx49+OFkRNWAAQNq165NIvGD++OPP5YtW3bixAmrsn79+h07diS+emIsT548mdAsYGZCM9+cYFWSmu/bptIiIAIiEHIC0lIhR6oGRSC8BN555x062LZt29KlS1mLWbx4MdooYJfopDvuuOP888+vXLnyzz//jA059913H4kqVaps37792WefxXc1bNiw3r17kzl06NCuXbt26NCBxUGcXl9++aVrdvjw4XjCaOrWW2/dtGmTy/dN/Pnnnw8++GCaNGnSpk3btGnTvXv3WinjpC6ZFN17770HDx60/O7du1/jc9SsWdPyGcDDDz9ctmxZqjDyn376yfXCUIsWLUo+Dc6bN8/ls4sMAyYfl9uMGTNcvhIiIAIiEAEC0lIRgKwuRCBkBPAnTZ48eeHChZkzZ965c6fJmosuuihgB6iuyy+//K233jp8+HC3bt2wQSQhU0j07ds3R44czZo1K1++fJ06dZo0aULmr7/++sorr2TIkGHKlClXXnkl4sY2v16+fPn999//zDPPfPjhh/v373/iiScCdjdy5MiJEyfOmjULZTN79uyBAweaGeotX758q1atYg9iVh7HjRtn+StXrsydO/fTpw+0HZOyfFxu1O3cufOiRYvOO+881BsqjaIPPvigffv2jz76KOKsXLlyRJVu3bqVfPxqN954I5Fh33//fbVq1XDU7du3z5rSOXkEtFdn8ripVrQRiNi+54o9j7Zbr/GIgBcBXC/2ZcrmzZvx/WCKHsqZM2fAOrfddhsCiCLUBpFVJDJlyoS/hwR+HTRTyZIlqVu4cOFixYpZCzi6kFPp0qW7+uqrEUafffYZAVUbNmygFOHSqFGj8ePHb9myhUtU3dy5c61WmTJlUGZXXXUVYotgz40bN6KBaN9Ke/XqhfTJli3b0aNHaR9/mOVzLl68eP369UkcOnRoxIgRLr9x48atWrXiklgubHCq4XYaO3Zs8+bNUXXkI7bQlKgrnFjvv/8+80IdMmxmhPMMwZc9e3bXmhJJJWAaumDBgkmtKHsRiCoC/LsuMp/yyS8VVfddgxGBRBH44osvLr30Uv7J1bJly9GjRwerU6JECStCx7iVtWDGln/FFVegSEifc845l1xyCYqN9E033YQUa926NYIJlWNeH4QRriA7cCBhdu211yKk0FuFChVat26dW7OjEZbysmTJgmxC5VhH3mdmZwZFihQhwYIm59WrVzM8y2d4uNwQbVyuWbMGpWXDRsOxXskAzExnERABEYgAAWmpCEBWFyIQSgKffPIJq3K0yBLemDFjzj333GCtm7wIVhowf9euXZaPo+jHH39kTZDLtWvXduzY8a+//po/f37evHnbtGlDtDv9IqfsMNmEPTFSrOLhwSJOyzxhRGi1bduWYHli3mkHD1bAfv0ybfGOTIuLz58/P2kUkokn0oSf07IND6Xohs14cFCZBPRrU5ciIAIiECYC0lJhAqtmRSBcBAgYoulcuXKxtkWcE4dvdPYZezWBZet0GKdPn560+xKQoCXW9RBSL7/8MqUmkubMmVOvXj20C24nApt+//13+5KOunYQVI4xC3DEM5FgIRJxw1obaduygYVFluGmTp2KLw25Q773MWrUqAULFhDm1bNnT2KqSpUqhX2DBg1Y8qMFVB1rfLi+TFPWqlWLYTNIbFgoJKSdYDLv9lUqAiIgAiEkoHipEMJUUyIQdgI4fuyrPZQEh/X3wAMPBOwYTePys2bNamk8QyycEYSEj4eAmJtvvrlTp04smQ0ZMgQDigjDYkEQe3QJ4Udk3n777TjAWDEkEyfQa6+9hr1r2SWIZ0LYscpm7RA7RYLuWNoj+oq6dHrPPff06dOHUPEbbriBUhNhvgnSHPTFiiEJar333nvoMNIsMhJ1zpd9pyz+7/8Yki0FVqpUiQ23iDrHmPxJkyaxFnnaRKdkEtC+58kEp2pRRiAywVJMOk2wnVpSCITPdpyXPmFT3qUJ7ZUjAnFJwPsPgndpSoDwpx5NdsEFF1gjpBErGTNmxKPDt3W4u4hAYusBfE6+vVBEvLmLZPItcunjx48j0TAjnt13hZHVPYQdAVhYEjKF6PHVea66JapWrYo/7KGHHmKBjyouht1KDxw4wN8tCfPxhPFhI+uAckr58eSS/SNQnAnzlSMCIhASAv/6uzIkLaoRERCBKCeAN8gJKYbq58VBA5k7ym8WATP9bKhrgskvH2XmcvBsubRHglH5DcyMWTq01UO/uheePvwydWkE+vfvz0cDeBzxRLKFmLCIgAiElsA/SwChbVetiYAIxBwBfE4R+/kqDzjEP7HlpoeBipJKAF8jSPmJxn79+uHvRFoltQXZi4AIeBDQGp8HHBWJQHgJeK/ieZeGd2RqPR4JIFLZB5WZ4Z1iBym5qeLxJmtOZ4eAtNTZ4a5eRQAC3mqJUtusXKxEIFQE8EslbIrHrGHDhoMGDXJFfMhJmi3BXA4JfiDI7enqm6+0CEQtAT77jUz4udb4ovYZ0MBEQAREIMQEiEBPGK9GZDph/vz4Dx8N2MGHCBz/uzr1f0olpEJ8M9Rc+Amw73n4OznVg2LPI8NZvYhAcggoTDg51FQnCAHCpFjjs63n7fdhXn31Vfd9H19B+rqm/NrAS+qXo0sREAFHQFrKoVBCBERABOKWAELKLfChn5DpTkXF7Zw1MRGIFAFpqUiRVj8iIAIicJYImJDCF+XriDpLY1G3IhCHBKSl4vCmakoiIAIi4EugYsWKbIsgR5QvE6VTA4HIBJ5DUloqNTxOmqMIiECqJiAVlapvfyqefMQ2zNN3fKn4KdPURUAEREAEREAEUkxAWirFCNWACIiACIiACIhAKiYgLZWKb76mLgIiIAIiIAIikGIC0lIpRqgGREAEREAEREAEoo8A+55HZlDSUpHhrF5EQAREQAREQAQiSiBi+55LS0X0vqozERABERABERCBOCMgLRVnN1TTEQEREAEREAERiCgBaamI4lZnIiACIiACIiACcUZAWirObqimIwIiIAIiIAIicIpAxPY9l5bSAycCIiACIiACIhCHBLTveRzeVE1JBERABOKMwO+///7oo4+WLVv2pptuGjFixIEDB+JsgpqOCCSGgPxSiaEkGxEQAREQgQAE7r///pdffjlz5sxbt25t167dvffeG8DoTFknT548k0mKysPdvg0uYC8BMz0mE9A+hZke3akoVASkpUJFUu2IgAiIQOoicOzYsY8//rhIkSLz5s379NNPmfyXX34ZEEH37t2vOX1Urly5W7du27dvN7Px48cXLVo0bdq0efLkeeGFF5xouOOOO8zezhs2bMC+atWqs2fPtoqPP/44RYcPH7bLevXqOXu6sMy9e/c2adIkTZo0tE/d5cuXk79y5UosKTIbDN5//33SjOTuu++2zNWrV1esWHHo0KFcHjlyhL6o7tqn1Mzcee7cuXjm6IW5TJo0yfKXLl1KI2QyACTmwYMHyacX144l1qxZc/ToUdKPPfYYELBnGHv27LFGhg0bZnxoCsiW+eeff8IwW7ZstIyW/eOPP8gP2J3Z6xwJAjy74Tjy5s3r0ax3qUdFFYlAPBHw/oPgXRpPHDSXaCDg/bx5l86ZM6dly5a8sdq3bx9wLg0bNmzcuDGbUCO2rr766kceeQQzUwzPP//8+vXrEQ1UX7x4sVUvUKBA586dP/roo+HDh5OPDCKfxOTJk0lMnz6dNAcrjGafNWvWp556Cnt0D/mWiYBD5y1atGjZsmXly5e/7bbbyKcLDBBzZoPB66+/TnrgwIGlS5cmcfz48SpVqmBDg1z279+fxseMGTNlypSRI0eS7wZpLfz1118YdOrUacWKFda7jcp6XLVqlW29PWjQIOsld+7cjJNj1KhRtPbjjz8i10jQyIwZM+DD3Fu0aIExPZKPpEMnAZb0li1byGdgNAKEqVOnknjuuefIDNgd+an8+PrrryNDID23R4cIiIAIiIAIJJtA165dFy5cSPUrr7wyWCMFCxasVKnSvn37LrzwQhYEMcMHg6SoU6fOoUOH0DTk7Ny506ojUDCuX78+Msty3Bml0qpVK4pwiVkm6gevT926danizEig3vDxlCpVCglSqFAh69TXIGAaVffrr7+WKVPGSvfv31+uXDlTirSTsApDRfDdcsst5557bs6cOZ1Br169qIj3CLcT8si54pg+g8ds06ZNzpjESy+9VLNmTRKISyY4evTosWPHNm/eHM8TmUg9dOQHH3zQoUOH/54+atWqRT5dG7Rg3WGTmg/2PY/Mp3xa40vNj5nmLgIiIAIhIIAHxRxLrD3ZklPCRl999VXWpHLkyPHZZ59Vq1YNgyxZsuBcQVtccMEFqDHfKjt27ECF+Oa49JNPPokwwrPlckzi4DlzOZZAxKCBMmTIcMUVVyTyd9mQbh07dsRjxJCsEVpYsmQJa3CsBrZp08avCy6ZxZ133rl27Vo6Yvp4vzJlykT+5s2bqUUpyglBlrCiX07x4sUtp0SJEiSI4mcxkZFb5jnnnHP55Zdv3Lhx9+7dCEdcaJaPw89GldTurLrOoSIgLRUqkmpHBERABFIXATwrRPM0bdr0oosuIvCc9SZe8z///HNACqzZsdqCvuFzP5wrWE6YMAHXy7Rp08j0/d00Ux4EDyVshyUwPDSstaVLl86VonVIX3zxxS7HEgwMNbNr1y50CT36lSa8JPyLpTTE04033uhKWbljqKilu+66C53k8l0C2ccS5GWXXcaSJStKyMpZs2ahydq2bdujRw+UJTLLeblcrYQJ2rFM859lz54dyYh4skzQ0SZMEGfkuHgvVlfBmIzuEg5AOSkhoDW+lNBTXREQARFIvQRYumLFbeLEienTp8eRgxog6Me5TPy4EBXEAh8rYhYmhY8KlYMLB3fLiRMn+vbtiz2rdTRoweCszfm1wOXgwYN79+5NkVMerHAxALYRsvh081GhLZBWSD18PKy7oXVwNSH1XIOs4qGQuKQ7mrIYdmKbGOG7777rzEgQq86MunTpQjrgGt+CBQvwPOH3Mt2GGXLH5khAOhMkqolSFxHv27hvms8hWeNj3bNPnz6sTlLUoEEDJCAyjgizIUOGrFu3jvXQjBkz1q5dGw41atRg8Cg2DMynlaTufLtWOgQEwhSW5R2o6F0apiGpWRGINgLefxC8S6NtLhpPrBPwft6Clc6fP99pFBJ8ZxeQA0tR7nWFvkGvYMaylIVJUdSsWTOip0lYsDmCydpBFZGJc4hLEtjgxCKNP4ZLxETr1q1J+B1IOmxohHxGxWFriD179rTYcz/7mTNn4u4i02LbqXvDDTdY7DluKqQSORympXCD2aWdEYK+C44EvJPDIC0oipEw5nvuuYfGrReLcKeuxUu52HPnu8IAVxYG6E4LObfREv9uPbL2Z+uA5KOucOMF687sU/OZ5zMy009DN3afQnvOly+fR6Cfd2loR6LWRCBqCXj/QfAujdpJaWAxSsD7efMo5SWC4sGlVLhwYRxUSZo+cgF3C0FUrF6xxMaKGFFHeIxy5cqVyHaIFjr//PNfeeUVZ8/XcI0aNbJdQ7dt24ariYVI4o1onDOHs7QEHjJUDuLJLz9Jl/SC0sqfPz9rc64ikgg/0yWXXEIOigddxaUrdQn2OMDbxBhwL4ERj5qvGRPhZUojkHFVMENR0SCrqy4zkd05eyVCSCBpz30IO1ZTIiACIiACcUAALWJyIRlzQR+4tTx0GKqIRhAWiW+K1T0/e2SZ+YFoBHcah7XGhqIBm8X342wCGiQmEwnlq6KsChrO1Q0WSu8MSPCpo++lpWFiWHyLCBdz3Fx+UrtzFZVIOQFpqZQzVAsiIAIiIAJnh0DCb+v49o0toxI/GkKREm8cDkuEEUucLESGo3G1GRkC0lKR4axeREAEREAERCAAARxyb7/9doACZcUOAWmp2LlXGqkIiIAInD0ChEydrc7ZhNM+7jtbA1C/MUqALygjs1entFSMPiEatgiIgAhElIDH50ThHsdZlHHhnpraDysB7XseVrxqXAREQAREQAREQARCQyDA95mhaVitiIAIiIAIiIAIiEAqICAtlQpusqYoAiIgAiIgAiIQNgLSUmFDq4ZFQAREQAREQATOHoHIBJ4zP2mps3eT1bMIiIAIiIAIiEDYCLCVa9ja/lfD0lL/wqELERABERABERABEUgSAWmpJOGSsQiIgAiIgAiIgAj8i4C01L9w6EIEREAERCBJBObNm1erVq3GjRsnqZaMRSCeCGivzni6m5qLCIiACESIABJq/vz5EyZM+O233+hS+5JHiLu6SQoB7XueFFqyFQEREAERiBQBVNQzzzzzyy+/uA4RUvzMi7tUQgSihEDE9j2XXypK7riGIQIiIAJRTcA5og4cOLB//343Vgkph0KJVEtAWirV3npNXAREQASSQCBYRFSw/CQ0fSZTOb3OREjlZ5mAtNRZvgHqXgREQARiggC/bdy/f3+io4iR8h1wt27dunbt6pujtAikNgL6ji+13XHNVwREQASSSQDN9OqrryKq0E80UbBgQc79+vVDYyWzRVUTgXAS0L7n4aSrtkVABERABFJAAFGFomp6+qAZyakUsFTVMBKI2L7nWuML411U0yIgAiIQxwRsaQ9PlfxScXyXNbXEEJCWSgwl2YiACIiACAQloHipoGhUkDoIKF4qddxnzVIEREAEREAERCA8BKSlwsNVrYqACIiACIiACJxVAux7Hpn+paUiw1m9iIAIiIAIiIAIRJQA+55Hpj9pqchwVi8iIAIiIAIiIALxSUBaKj7vq2YlAiIgAiIgAiIQGQLSUpHhrF5EQAREQAREQATik4C0VHzeV81KBERABERABFI5Ae17nsofAE1fBERABERABEQgRQQitu+5/FIpuk+qLAIiIAIiIAIikMoJaN/zVP4AaPoiIAIiEAkC27dvHzFixMqVK0uUKHHjjTdWqFAhffp/XkBz5syZPXv2L7/8UrRo0auvvvrWW29NkyYNwzpy5MjQoUPr169PfiRGqT5EIFkE5JdKFjZVEgEREAER+B8BdFKNGjUqV64cbGvEv/76q0yZMn379kUh/fTTT6y8NGrU6MSJE9ZA7969q1Wr9uGHH2bPnn3+/PkU8aPJf/zxB6WcH3nkkeXLl/+vK/1fBKKRwD//LIjG0WlMIiACIiACUU/goYcewqvEMPfs2RNwsOikHTt27Nu3L1u2bBi8/fbb99xzz88//4zAmjp16uOPP86vI3fp0sXqTpgw4c4777ziiiuefvrpgK0Fyzx58qR5s3wNAmb6GvilA9oHzKRisHy/NhNenrFiQIOAmQkb984JSSOui9C25poNVQJxH5nwc/mlQnXL1I4IiIAIpEYCH3300cSJE8uXL+8x+Xnz5uXOndst6jVu3PiZZ57JkCEDVQYMGICbCueTq45TqlmzZi+//LLLOWNi8+bN9erVS5s27fnnn//ss8+ax2vp0qUVK1YkE4F17733Hjx4kHZYZLzm38f7779PfocOHR5++OGyZctij4MN55l1unHjRhYcycyTJ0+3bt0OHz5s+WyozTIl+ZdddtmMGTMs053Hjx9/99132yUikg7XrFnD5d69e5s0acJ4qFi1atWA/rZhw4bRlw3jxx9/tEZokFVOG8YLL7yAgiG/e/fuvlOpWbOmGdOySVsu0anY2LC3bNni5vLqq69SajQYlVUMeN6wYYNvL+53rD3wugaZrOFlqK+88oq1/8UXXwQcqpU6dC+99BLOzt27d5OP+OambNq0KeAIPTIjtu/5KVkdjiNv3rwezXqXelRUkQjEEwHvPwjepfHEQXOJBgLez1uwUhxRiKROnTqZVwldFXAu06dP54VHpNQTTzzx6aef7tq1y5mR/9xzz7lLS7z11lvk79y5016lH3/8sZ+B3+Vtt91WpUoV3u6TJk2i4syZMzFA3pG/atUqW3kcNGgQmYsXL8Zg3LhxDJWDwb/++uvkU5380aNHL1q0qE6dOkWKFCFU69ixY3jOcGwsWLAA/xnGjz76KMasaWbNmpUpf//994gwKqIeyHfHwIEDS5cubZe//fYbBqgiLpEUtEwXy5Yts+G5KpZYsmSJDYPQMYZB1+Sbt+/5559fv349SgsDZkF+w4YNb775ZpsIg2FI1ggGkydPJm3Yufz999/Rl7R2ww03LFy4cMiQIWR++eWXRoPpWMWAZ5OV77zzDh0RuEaPZuaB1zXIZA0vQ+3cubNVfPfddxMO1XXt0KFBMbv99tuRsyR69erlbBKf6NevX+KNU2KpNT6eKB0iIAIiIALJIfDYY4/h8+jZsyevOo/6tWrVQtDwEn3vvfdefPFFLFu3bs1b9vjx46QRan51bSnw0KFDvET9iuzyhx9+OHDgAOmCBQvywm7VqhX+ocKFCyMayDz33HM5M6Ry5crR1NGjRwsUKMAL3upyvummmxBGJM477zyXibeMdrgcPHhw8eLFWYLEgYQGQo1xST5qBtdUnz598LVkypSJ8K906dKVLFkSZ9j+/fsJ9nJNkUCKmR8Fn5nLpwv8VaVKlcJFVKhQoa1bt7oiS9AU66ENGjRgdqTNwYY7Ch2DtAIIk8USlWn2DAx9Q5oiQvst086gYDqUokTJYTrcApvLVVddhb0zRlRdcMEFOXLkuPLKK53v0JUyNdJoGoq++uqrFStWWJEHXqZMhBxmdjZ7VngNiOljy+SMnsuSJQtOSu5grly5XD5pHphbbrmFTlG0yFBXFIUJaakovCkakgiIgAjEAAFeq8OHD8dRgRfEHCrTpk3DH5PwmzscUbynK1WqxKx40Y4dO/app54i54EHHkDTJFy7Wb16NZYXXXSRCaaELFiPmzt3LvnEVKHkTE9YsBSy6dJLL7WO2rVrR+PoDxMECdvxzbFa5Jhe2bZtG34pLosVH+/prAAAQABJREFUK2ZmGLBQyJBYsGOBDyFFPmqM2Hkz8D2vW7cOneebQxpV1759e9QDGhE1Zh352lxy+njttddw9ZGPL40zUgMPEyKM3lEVvvYe6SeffBK5xuKpaalff/0VYzcXW6pDkpKJdjznnHPwlqHMoJo5c2bfZvGrcY8SaizuYzC8ARd8uekc1rKvRObh+e6771hJROc5R5qZ8Wix/ss6HYvICQfgO8iznla81Fm/BRqACIiACMQkAYtA+uSTT9q0aYNvgzngamLZK+FkWF1iIc/yUUi85pERFkJUvXp11q3sqz3cVLz7WVAjtua+++7zeH3OmjULXcLRo0cP6rK6h+5hoQ0RhoeDdSKWw9q2bWula9euTYwEcV4iVpcYav78+YlbIoGospGbhwkdgK8LdWiZjAEHlRVZjp1Z0GRIHIzE5RMKRuwRdRFktjjoiiyBAkP84bTDeUM8/oMPPoh7iWB8VAg6lb4SGQDE7QDCyJEjTfDRuMkX89txySqqawo1A09ipxB5RLb5DYkbinD0y/TGCw2bu69YZC6WaQu4rkH8W0RQ0TtOO/a/cPkkPvvsMwaJkkMxmwvTtzQxaR68xJil3EZaKuUM1YIIiIAIpEYCuB9YuLGjY8eOIGBRhh0NErLAb4TMQg2w6IP0Ib4Y0XDttddiSag42gUPBO9s3vQsfpGPnsDb5Nohuoh3qjtY+UIioLQ4WP+iQdbycOHgIuKNy/oXjhyLMSKWHPcPoU4sbyFEXIMBE6NGjULG2ZIl729W4qhOgtUlBoZfhzW+5s2b4/1iyZKoI/bEoh1W1jDw8+WQz9gYpB3WHcNmXmisnDlzEnVOd75LYGaDmGB7CIRUxowZTa4hDUkwi8svv5wW0G1YnlFY4GrCW8YUrFnOaDjkFAKLNJqJiThdhQblAC9FtrrqahGrhJKjHfQoB2aoQFZLvfG6ubt2SPwPxqn/++YzDB4hhDWEWWp0Rcy6ZcuW+OcQ63jLUJauKPGJiO17rtjzlESbqa4IpIhAsHhea9S7NEUdq7IIJCDg/bx5l9KYxZ4HCxInOof3onsFoid407shoKLI8S0lzfoR6scvtsZsaM3VtcSbb77plo2IK2JFj7q28Ec+mo8tGKhLTDoygkTC4Ghiz90YqPL5559by+x3hZyyfnGh4aOyfHOzYclBwLvfeFwANfnoJ6pb7LmtBtIgh62yIRl966JRCA+37mgZ0Ukpbh7n4OELR1tBQ4IQ0I0bz6pjib2lqY4NBLg0wYcxaTTlqeGeDkFD/5FjNFx3CT8CYMHUSn3Pd9xxR1LxegzVtVy7dm2km0NHL1BCZjFOVCxmeB9JR+eRhmG5mYQwkS9fPucvTdisd2lCe+WIQFwS8P6D4F0al0A0qbNIwPt58y5N5LDxNOB7YI2P5bOEVdA3lPL6JGQILwUuLvZNSGgWLIdYb2JuEAq+jeNKwXFFg9RCYFHKZcAW2EeAD/XZKAsnGfa2X4NZ4g1iSQtfly35uepMBx8YMUkJnVLOJmECNYY+IKSMECU8apw5/Mx4ezJaWsYdZUV4sPDkER7OGFgpoyKR6X61EnNJRSCDiKYSY0/IFw4/dlJwxtwU1uNwVpGTeLyuekoS5ppymzKkpKmQ11XseciRqkEREAEREIEABC48fQQoOJ2FSuCwUoKgkySkqMWiGJ/U+TXuGwXvt3rlZ2mXKIyEIgP55dxCvrW8p+Nr6ZvGw8dhOcFEGMqVw7cW2s4t2LGCljwhRYP0yOdyvi17p/l8zy+Cnsgzd5uSite7r8SUsscBB19TsnOYfcqQmFoRsJGWigBkdSECIiACIhDVBAiB4gvEqB7i2Ric22DTdc72my4d4YR5pHCJIafoGlFYt25dbzcVcXKRCT8P7O2MMCB1JwIiIAIiIAJnkQBusLOoEs7ixGOra5QT30Kaq4ztTNFVOPBY+0v4+aHNywLqIzBH+aUiAFldiIAIiEDME+CT9ZifgyYQFwRsK3mmYglzU7Hkh9Jq0aKFb/wZsW58L+kmTci8bV3mckKVkJYKFUm1IwIiIALxTMB7MSWeZ665RRmBhF4oE1Kc+WKRTUcTbvfFDPjoIeFGWaGambRUqEiqHREQARGIZwJRFeobz6A1N08CbJRl5bbSx480+z2ZfKXI4dlG6AulpULPVC2KgAiIgAiIgAiEnABCytb1nCMq5F0kr0FpqeRxUy0REAEREAEREIHIEbD9pfhhaT9HVORGELwnfccXnI1KREAEREAEREAEooMAEXv8yE8UCinwSEtFxzOiUYiACIiACIiACMQmAWmp2LxvGrUIiIAIiIAIiEB0EJCWio77oFGIgAiIgAiIgAjEJgFpqdi8bxq1CIiACIiACIhAdBCQloqO+6BRiIAIiIAIiIAIxCYBaanYvG8atQiIgAiIgAiIQHQQkJaKjvugUYiACIiACIiACMQmAWmp2LxvGrUIiIAIiIAIiEB0EJCWio77oFGIgAiIgAiIgAjEJgFpqdi8bxq1CIiACIhAaiJw7NixTZs2zZs3r1evXqlp3rExV/0eX2zcJ41SBERABGKOAC/+3r17u2Fnz579jTfecJdKJJ4AP0LXqlWrgwcPUuWZZ55JfEVZRoaAtFRkOKsXERABEUh1BBYtWvTxxx+XKVMmc+bMTP7EiRPJQHDy5Mk0adL4VQyY6WfjLoMZB8t3FQMmAtYKmBmwemIy/VrbsGFDkyZNnnvuuZYtW1544YUG07XjZ3zGfGfgkQjWpkeVVF6kNb5U/gBo+iIgAiIQLgJr1qyh6fn/O6ZOnRqwp+7du19z+qhcuXK3bt22b99uZnPnziU7bdq0JUuWHDVqlGVu3ry5Xr16ZJ5//vnPPvus6bOqVataCzVq1Ojbt+/x48cxHjly5F133dWoUSOMixYtOnnyZGth7969SBP0GflUXL58OfkrV66kBYpIv/LKKwzJjBnS119/TTpgLfJ37dp1991301SePHm6dOnyxx9/kFmxYkUbj525tNbcmfbpxS6/+OKLmjVrWnr8+PEM1Vp74YUX0DTkv/POO1WqVNm3b1+bNm3gs27dOjPeuHHjrbfeasbkHz58mPxgs7Yq7gxDN0LmaPnB5gil2bNnm02fPn2eeOIJ0gyViVvmjh07aM1ut6+xlTrLl156iRu0e/du8t9++236ZdXSbGL9LC0V63dQ4xcBERCBKCWwevVqRla9evWCBQvyAv71118DDhQdc/HFF7/66qvPP//8nDlzeFtjxluWt/K11167dOnShx56CBnxySefkP/ggw/+/vvvZI4ePbpnz572jkd1NWzYkBYeeeQRwolMtG3ZsoW3eOHChTG+/fbbGzduvGLFClqg/R9++AGf2bJlyw4dOvTkk0+SiQZauHDh0aNHSf/2228MiQTHN998g4ghEbAW+bT8888/Y0ZfkyZNevrpp8mkTRJZTh8krAvy3UH79GKXe/bsoWvSSBnEH2t569evB8VTTz21ZMkS8tGiTBDx98ADD2zbtq1cuXLIEfRi/fr1UXILFiwAxZtvvtmjRw+Mg82aIt8DgVinTh3GVqtWLQZvRcHmSO+mMjFjbKaZdu7cacMj86+//mIKJuZ8ja1ZZ8lNBHuHDh2YO+e6desWKFDAbGL9rDW+WL+DGr8IiIAIRCkBUySESe3fvx+fxIQJE3755ZeMGTMmHC5iq1KlSqgW1rC2bt2KARFCuXPnHjBgQPr06VklRGONGzfu5ptvRmpcdtllKCQUFWbnnnuutVa6dGlaYDmMSwSHZWbNmhV9cM4551BlzJgx06ZNK1WqFKIKhwoJZEehQoWsO7P3OAeshThDzKF1rrvuOuoigHA49e/f/5ZbbuHSPGEonoDNMlnzypifBhs8TB999BESB4VXpEgRclAhnJkUSpFmSd900025cuUCzlVXXfXjjz+uWrWqePHi5NM1rikmSzrgrMl3BzqM0CukDMRcJomAczQDRmKjPXDggKty5MgRy8RZ6DJJLF68GBmZIUMGsDNaV0T63XffBc5XX33FPXXOP2cQuwlpqdi9dxq5CIiACEQ1gc8//5zX7eWXX843aBdccAGLUyyoXXnllQkHjUuJw/KHDBlCAgFRoUIFhJRl8ur98MMPSZs0sQgqvBqXXnqpGbCWZwnOrDdZmnc5Qop0unTpypYtaxoL51P79u1536M5MmXKZKrF1Q2WCFjLlITfEh5TDqgX/Voee/qwTEZCAv0xffp0dB5Ch/k6exp0ogftSHrt2rUsKWJQrFgxM4MDtUzoBJy1a40EIpJz3rx5fTNJB5yj2dx///3OGFecpbmhiGCX7xKIyO+++447iNRjRi6fBGoY3fntt99OnDjR3VxfgxhNa40vRm+chi0CIiACUU2AVSECffAnMUremtmyZSOBpgk46M6dOxMbxLt8xIgRrP4gC/Lly4dicMaoFt79rMSxYIcyo3EWEPF8DBw40Gx4f9MCHp377ruPdUDLpJaFHHHJq/2iiy4i0bRpU8QWq2MoD/oyyzOeA9ayBlEGON44cFMRa58YIUV3DJKJcLz11lvWO3479BXOMzjQphsSktHWGS0HRxrC1LSU88CZZ8g0WcBZu9ZI2Noc66q+maQDztFsWL600bZr187VKlGihGWy8OcySbDMShAYXkkcXUOHDvUt+uyzz5gaHkeWFy2szbc0dtPSUrF77zRyERABEYheAjly5OCFSogP0UIEyvCCxwPk3Eh+48b1glwgcoiDItxOLGbh1Xj99deJxWFJiFcycdZoKaKFBg0adN555/EmZuEJX441xZIfLbBehg5zjdMpsdi0QDgRrVWrVo1YdTIRATlz5sRJRkg7pc6eiC4EnDVCgoMivDh//vlnwFqsr9EUUeQMmHZwdw0fPty15p1AVrrDLJF3+Mlw4zFIIujJNLXRoEGDwYMHW8j5lClTWNrDu4ObDUXCMhkTZ9is8TVv3tzcdQln7TsSoOETwjmEuGSC5qNCDHmTcUNlIdK1hkR2+S6ThN0LwqoYGLLPFTFBPkXs1KkToW+EVdmqpSuN7QSaPRwH/4DwaNa71KOiikQgngh4/0HwLo0nDppLNBDwft68S4ONHw/E9ddfb+9IhBTukICWBAO59yjShJAaM8NH5fJ5AeOtIR9VZN4XiggtwhtEpjMjgUpg/Y5MNhFAbXBYKTtdWbO25ZUVde3alVJi2Kni24hfGodTwFo0SEW3SshkkSbWC2d0A4e79E0wZcLkLYegdWZEGt+Sa6pZs2bly5dnGOgSVBrtkLaJI9esInFabnYE+OOjIj/YrK0K59atW/vNzlqmKNgcMTC3HzZ48ljjI4FHkBg1EhyoN2wQeaR9G69duzYfGzrLO+64gwEjeTFD/GGJl/FU/dAd3g+qd2lKRpGGyr4zD1Ua96xHQJ93aajGoHZEIMoJeP9B8C6N8qlpeDFHwPt58y5lT04X0JNw4sgLvvAiWhwfRsJS7xxkBL6N/PnzO/2EPU4sfCrkkO9RHYWEY4x4HZwuLJP5toDs4I3O7gNEU+Hr4swRsCm0GrHzaCn2ZQhWC48OioEFR+/xBGzfL5P54n/CpccSHstnjI2tH8yGrSJw2oER35WrRdfMDuecLfmR7zFrq4WPkDbdjgxkzpgxg2gzi7UKNkfXY5QnvB9U79KUTO3vsL6UNKG6IiACIiACqZMAKoqVGs6E2rjgcT8UKVEYCBREjF+DBCQlzPSzcZcoj4QLi/gnOMzGb+tLV9ESDKBFixYmaILVYtkLieNXMXmXdMcHhlaXFTQnpMhBLTnB5Bqna+fKcpkkAs7aDPDb+UV00ew999xjpcHm6Nu40gkJSEslZKIcERABERABLwKIJxaYiJXGiL2CPISUVythLuNztpT3gCghHjzl7USshTPOGr+U32CuuOIK4tL8MnWZJALSUknCJWMREAERSNUEnCPKUYhOIcXw+IiMw40zlSRS56zP+s1NZzulhnwceH3ZNyxYs96lwWopXwTijID3HwTv0jhDoemcdQLezxulfCPGzgV8sc9+m260CCkCivkujBy2GkJpKS0OZ/EZ4Ank40r2ZeULTXbN+Omnn9iQ3Q7i9tgQ30OZuKc6GQn5pZIBTVVEQAREIDUSYDnPd29GtozyvUyNRDTnKCNA4Bqff/LxI1tjEKrPPmS+QWZ8JRqm8eo7vjCBVbMicGYC3h+VeJeeuXVZiEBSCHg/b64UBxXbLTrXFHKqbdu2trNAUnqTrQhEggCPa2Qezn823YrEtNSHCIiACIhALBPgzcQn9PwenK2V8KFZv379eGPF8pw0dhFIKQFpqZQSVH0REAERSG0E2E0KUcUmgsRL8eGY5FRqewBiZb5uq9hwD1jxUuEmrPZFQAREIG4JoKg4CPiN2xlqYrFMgM20IjN8aanIcFYvIiACIhC3BDw2PY/bOWtiIuBDQGt8PjCUFAEREAEREAEREIEkEpCWSiIwmYuACIiACIiACIiADwFpKR8YSoqACIiACIiACMQLgW+++SYyU5GWigxn9SICIiACIiACIhBRAt9++21k+pOWigxn9SICIiACIiACIhCfBKSl4vO+alYiIAIiIAIiIAKRISAtFRnO6kUEREAEREAERCA+CUhLxed91axEQAREQAREIJUTiNi+59JSqfxJ0/RFQAREQAREID4JRGzfc2mp+HyANCsREAFfAlOmTPn66699c5QWAREQgVARkJYKFUm1IwLRQuDNN9+sWrUqvzjbs2fPLVu2RMuwzuo4Ro0a9dlnn53VIahzERCBuCWg3+OL21uriaVOAmPHjm3VqlWJEiUuueSSZ5999vvvv//oo4+SiuLkyZNp0qTxqxUw08/GXQY0DpjpqgRLBKwVMDNYC+RPmjQpXbp0HgYpKTrjYM5o4N174qsn3tK7R5WKgAgkiYD8UknCJWMRiHYCgwYNYoisZ02bNo2FraZNm/75558JB929e/drTh+VK1fu1q3b9u3bzWbYsGFFixZNmzZtxYoV582bZ5lz584tW7YsmRQhSshcuXKlVefcoEGDyZMnm2WHDh0efvhhM6bln376iXxe8E888cT5559PCyVLlvzwww/NGOfZ7NmzSXMmbZldunSxKXA5fvx4G0yePHleeOEF2iFz165dd999N02RifEff/xBJqN14yHBpbXmzs8999wbb7zB5Zo1a9q1a8dgGMnQoUPNYNOmTY0aNSKTNnv06PHXX3+R//bbb3fs2JGRFyxYECffu+++61pzCXYCrFChAoPBYMaMGS7fEoyNEdJmtmzZaH/z5s3kw8d3qKR//PFHZmqZjLxly5Y//PCDtZD4yW7cuPHWW281LNzQw4cP04I1O2bMGGtt6dKl9NKnTx+71FkE4p5AxPY9P/XXXDiOvHnzejTrXepRUUUiEE8EvP8geJcG5MCrl78cs2bNescdd5QvX/6ll15ijS+gZcOGDRs3bsxfNF9++eXVV1/9yCOPYIb2ojoKg5du+/btSVMdYUGDnTp1WrFixeOPP07m77//vnjxYhIff/wxLbz66qtmSQtVqlQhPXr06EWLFtWpU6dIkSJHjhz59NNPyZw6deq6devQMbR27NgxjMlEhJEwKUaCo27duv/5z39I7NmzB4Pnn39+/fr1KDzSdEp+9erVy5QpYyMvUKAAYoVMRoL7jSIOElyS6XvcfPPNqCJyGNWdd95JU4MHD6ZNJnX06NHSpUvTJrU4GB5yCst+/fph0KxZs1mzZtWvX580qtS3TQQoxgwA5x8iEoO9e/f6GkA1d+7cTB/JRQwsnI8fPz5//nxGCE/qkuBgpgMHDmQuTAoR3Lp1awZz4sQJmmI6iZksPDHjk6UFCxbAmU4fffRRqtMso6JfG5XdPu6s7yBd2vt58y51jSghAlFFgD/FkRmPtFRkOKsXEQhAwPv95F0aoLmTJ9euXcu7k4M1Pg4SvF8DWqKlOnfuTBGvf+QL8oI0mc2bNzd7JBSv5Ndffx3lhEvm4MGD5Ji8cFoKMYE4sDikn3/+mYpoKSSatbB69WoGgM5gVMgRLLdu3friiy+SSQvYkPDQUvv27UNnIF+QGtOnT8f4888/X758OQnkiHWBx4VBWpozHh0Od+mbcFoKYYFAQSwynoULF6I+GRttkmP2qDdrk8kid5g1+atWrcIG4eXbJnCwNF0IH1x9yD5ngBiiCrLScuDDJS4ou/QbOaIHPUcR0hMXGv3SbOIni3KlcQZpjSM9aYE0zdpjgIplPMg1JJe0lFHSOTUQiJiWUrwUfwXpEIE4IXDhhRfaTFiVy5UrV7FixXB1sB7HelbCGeJPMpcSRUOGDOGM+kGLmOU555xz+eWXs3KUJUsWlBZSo1y5chTddtttmTJlMhtWryzBCztfvnyWvvTSSy2BU4rEtm3bKHrllVdq1KjBpWWagfeZfpFQLOchU1AAZsxiHAm/JTz0R8aMGb1bc6XoDObIKiRqo0WLFgzs119/pZTJmg3QduzYYUqoePHicCAfY85+q6UsF7LAZ2FY5513Xu/eva0FO+/evZuEo1GqVCkuGf8VV1zha+bSy5YtczFqOMN4zyV+sr/99hvtMHJrjU6BduDAAS7z589v66osuWbIkIGzTc31q4QIiEDKCSheKuUM1YIIRAsBIn5Y2uPFnyNHDl7MF110ESNjDSvg+MwvRemIESNYouLtW6hQIcSTGfMux8uCWkJY4CAhHgj/ECtQrAOaIwcz/FKYoZbSp0/vgpxwPlkLVCTBu5wlM2xQHhgPHz7cSs94njBhAnH0RH0xQvcDpTYjLvefPnAUsSqXeCGFGOJgIYy1S9b4OIgoyp49O4Ox0ZIgxgtHHYFHpL3D1YmCskVVLBlk3759LSKKSw5r1vQQl/ZBJX6s04UBTuaXwluGbH3nnXfmzJmT+MmaqAWytWvDMP1HDgu+wHz//feRaDavAN0rSwREIAUEpKVSAE9VRSD6COD+QRXhznnsscfwTvGGdh4Xv8HizmEdDYXEQRHaiyhy5AWuLBa2WB5iYYjoIpQHjXDm3WzSAY+RNcX6IAcOGJpy3g52H8CY2Gd2ZEA64I9BpqCo+K6QjgYMGEBdFrCsBRQGK4CmM0hwsPyHGT4V+sIBxuBpGZmCPToDRxE+MJxJjJZBslyVeHFGC2ij22+/HdmH1mSyDI+Rm5eL2HYmghxBXbHWacPzPteqVYtVQkQPZuhR1vgyZ87sqqAvETGsGCJPmQ63gyW2YPeCWjDhdsBz586dXDLrxE8WNxtzYQDQw81Gp6zVOi8X65uoz9dee434dzc8JUQgNRCI2L7nipfin8o6RODsEPCOiPIuDTZihNQNN9xgf0uifggtD2jpKxdQJ0REYWbqxP0NS0wPmbzUiaF2mbywybHYc9cLC38IIIyJl7IAHYronQgnMu0DN3OTUJ0EEUvkuzYTJkaOHIlzxS0I4lDB34aZhWq5fP6iRIfRlB2noqXOFC/F5ls2ElojopxP7aj73nvvuTHglELTkEmkBQHj1rK5fFxMlWVyJraJijTIwReOLt8SjM2C8bFBSCExnUHCeCk3AFNFQMYYzomcLDFkVLRGwMuAqY4gNtTMlHbIIeYdH6Qbhm/C+3nzLvVtR2kRSIUE0jBn92c4hAkiJJyrP2Gz3qUJ7ZUjAnFJwPsPgkcpuxWwQse3+izcBCTDnz4WwXh9EiIT0MAjEycK1XEj+dZFXqAMcC/Z0lWw6mxtULNmzYceeghflG8LKDxiehgwmgNXEH/tuKCrhE0RhMRmBHzOhrbDN4YPiTUs3DboHhYxsUdn4OxheIwnYfWAOfXq1bvyyitxPlF66NChX375BYeZtWb2NE64GHIE7AFbCJaJ/wxPEsujvk4pX2NkDV46DJK3vpb4yWLJsixeQxfH5juMM6Y9njfqepeesXEZiEB8E1DseXzfX80urgggofr37++2fXKR4wknyZuPI2F+YnJQGL4iw6ogobxVlG/LqB8O3xwkFAuFlnPG8CacKGwrhTFqyUK2SbNk5kaFKClcuLC1lpgzvigivW655RYzRm2wzZJfRZQQK2V+mYm5JN7fhfwHtMejEzA/kZmJnyyWzomVyMZlJgIiEBIC0lIhwahGRCC8BMwRRR/2xRYJPFKVKlUKb69Jb50QIqeZkl777xrEqie7bsCKbH3JVluEEAUsVaYIiIAIpJBAupD/tWUD4l/P7L0bbHDepcFqKV8E4oyA9x8ESlFLrOVxTJw4kaU3DiOAR4qPyEhzRl2xYhUlaQK6cUFFz3iMD7FKOKLYJCKqWEXbvSN8nih1QulxHJ7+qOCfE08Xoesef6XbY6mzCEQbAb6kufjiiyMwKn3HFwHI6kIEkkmAfS/dip5rwtxRKC0r4qw0cMQhhc8DEoqoMoR77dq1b/z3wQanZ1yZdc+nEiIQPQTcdirhHpJiz8NNWO2LQFAChDSd8RMNdBLeFPYH8m0FD0HXrl19c5QWgRASMFkWhYvIIZyjmkoNBPj7MzJ/VcovlRoeJ80xhgnwFwErekguW2GxpT0+1+fviBielYYuAiIgAnFEQFoqjm6mphLXBBBVKKq2bds2bdqUiUpOxfXd1uREQARiiYC+44ulu6WxioD5q/FUyS+lhyF8BCITrhu+8atlETACEdv3XFpKj5wIxCSByAQBxCQaDTrFBPjyMcVtqAEROPsE+OmCyAxCa3yR4axeREAEREAEREAE4pOAtFR83lfNSgREQAREQAREIDIEpKUiw1m9iIAIiIAIiIAIxCcBaan4vK+alQiIgAgkmwBbmnEku7oqikCUEGDf88iMRFoqMpzViwiIgAjEDAFpqZi5VRqoJ4GI7XsuLeV5H1QoAiIgAiIgAiIgAp4EpKU88ahQBERABERABERABDwJSEt54lGhCIiACIiACIiACHgS0F6dnnhUKAIiIAKpj4D2PU999zw+Zxyxfc/ll/rnAdqyZcsrr7zy119//ZOllAiIgAikPgLse66tz1PfbY/DGUds3/OY8UutXr064Y9mdOzY8aabbgrV/V+/fj1dtG7dOkOGDKFqU+2IgAiIgAiIgAjEN4GY0VKHDx/+5Zdf3M1Yt24d6TvuuMPlhDBx8uTJNGnS+DUYMNPPJvGXZ2wtoEHATI9Ok2R/RuOABonPDDbOgC2ExNg1EoEuXF++iST161tRaREQAREQgRgiEDNrfGXKlFn7v+O///0viBs2bHjnnXcmZN29e3eW6ix/0qRJ11xzje0w4Zv/xRdf1KxZ02yGDBly/uljxIgR5Dz22GNp06YtWLDgtGnTzGDu3Lk0QmbJkiVHjRplmb7nypUruw3B+vTp8/jjj1NasWJFarmDSzL/+OOPLl265MmTJ1u2bI0aNdq8ebNvO5YeNmwYBnRHsz/++COZvJKfeOIJxmhj+PDDD12tevXquS6wt/y9e/c2adIEOYh91apVly9fTv5bb7117733msGOHTuotWbNGi4DGpuZO48ePRogtHbjjTf++uuvls84ixYtSiZTmzdvnmXCqmzZsmRSBHzL3LBhgxskCedfXLp0KXUxZqiM7eDBg9iPHz/+7rvvtoq+4wxobGacDxw4QFOfffaZ5ZDgksw///yzW7du0KaL+++/H/4YwMR3PLC1WgzYZkTpnDlzLBPj2bNnk+ZM2jK5iYMGDSIdbLQbN2689dZbmRq3kgHwLwGrqLMIiIAIiEAcEuA9HY4jb968Hs16l3pUpIiopqynjz179gS0RGN17tyZom3btmHIPfv888+5dPmk3333XYpILFq0CIMXXniBRPny5Unj61qyZEnLli1J04Vt/tupUyfe5YMHDyZz6tSpVPQ9fDM7dOhw++23U/rxxx9/9NFH1U8fJLgk85FHHsmdO/enn36KvGMd9+qrrz5+/LhvU3RNa2gXnHB16tQhbo5S7K0LvHHt2rVj5MeOHbNapJ966inaNwFnmajGIkWKMKNly5Yxqdtuu438l19+mbQZbNq0iQaZEZcBjc3MztCzIaEXq5w+yJ8yZQqZQ4cOpZH27duT5r4QasZ4YLVixQobz++//47xTz/9hME777zDOOvXr3/zzTdbyza2VatWmRJFnZA/cODA0qVLm4HBR1ByGdDYzOwMLu6dpUnUrVuXNHAAPn36dO4aieeee45MBsOsGQxH7dq17X6ZYOrbty+jpRQbKJnx5MmTSXAmkwQHjf/nP/8hEXC03B2kP/duwYIF1u+jjz56up7/yfsPgnepf1u6FoHQEeAfAxyha08ticDZIfD1119HpuOYWePjNWZH7969cWCMGzcuR44c/8sL/P8HH3wQJYOIccX79u0zGbF7927L/OSTT0qUKGGeCd67+Ip69epVvHjxV199dezYsTgnCKLiHTxgwID06dPzgiSHrlEDrk0SGGzfvt03h/Qtt9zC2V7ACAjS3FHaQSfxJuZy5MiRl19+OZrpiiuu4NIOnE+4nRo0aIBPhfSJEyfIxx82a9YsnCL4aQoXLsz0jxw5kiVLFnQYaVqrVKnS/xo49f/GjRvj2ilVqhT6plChQlu3biXzggsuYO5USZcu3RmNfQ0YZ/PmzVu1akXma6+99vbbb5MADpl4ekijJ5jmBx98gG9p+PDhTPzcc8/NmTOna2T//v2kkSww/Oqrr1BaVgTqcuXK4TQ6evQoga6OIbOz2+Trtwtm7Hpp0aJFs2bNzHE48fRBES5Mjlq1apFmbDt37jT7a6+91m4KOtUeBkpRYygkDF588cUxY8bgvLRZW5Vg54SjRV+i/9CIPEjUev7553FN4bAM1oLyRSDaCNg/Y/BGR9vANB4RSBIB3BaR+ZQvxrQUr1ve3GgXtwwUDCtvdxbpUCq+WgoFwGFV8KCQQJ1ceumllsNyDAka58wLngSvXtanKlSogAgwG+SU7xKbZSIp8IT9/PPPrOnQHatLlu93tne26w6tgwGiwVdLXXL6QLLg3aHUFpIyZszIqmWNGjXIweHkmkUqkcZ74XIsgTTBV7R48WLmmClTJquCd4qweoQX/jCG6qoENHalJFauXIlsshyGipYlzacA5rojfc455yAK+Vcs8o5VV5QECol8eqR3Evy9DEzHkBw7kEq42SDACE1vWT7ut4R/iQcz/l9j/2fayHyQTBy9C3C0Jl4us8Ex6YwTJrjRuMd84+SYUUKzhDkJR2vvoWLFipkxd5xhmDhOWF05IiACIiACsU4gZuKlDPQbb7xBAm+Bn3PF7zawusebniW5fPny+RbhqWL9hYPgIcu/6KKLTJFwaU4LO2ODzKI6B2FarhFe/Am1Cw6tCRMmZM+ePX/+/O4N6qq4BAakzeNCwvo16eZseDFjgOhBB/Tv358Bs0zWo0cPZkR4E54t3CfO2BYEE+4E07RpUyJ+du3axfubNUezx41H43i8kD54ZVwjAY1dKQlkJWudlkOwFGuFpHF3OanBqPDeoUQhRmzWZZddhj2eVdYBcadh/P3336NHrQV3pkrbtm2ZGjFMEEakuiI8hafv0jFsLNPD2NU677zz4IZDirCne+65J3PmzGg7SgkIMxt8itwmZ++XYEaIPySdHfirzqjXrYWEozVRzi0zA/OumXb361SXIiACIiACcUAgxrTUd999B/Rq1ap5oycimGUv501xxigwd1gmqz8LFy7kxX/o0CECeshkDYsXOQtbpHHhsOcCizWvv/46wUCsTxEhREyxa9AS7KGAv+eZZ54hJNm5nfxsuMQxQxwPKz6oEFQOQe4sbOHR8bWkfWaHkMIXhRiiiMbRKKg0PFZoFFYJyWSEaD50AyPEoYIWMWWG5mBZEDXGC55VNpQNa15uxyxawN319NNPIzWsUw9jNyrC22mE9ukU1WhuOTQZUhVHDo3jKUSlsUBGeBBOIM7oBhs8aobJomBwwtmXAygb5o5/0fQZger4rggqoik8ZNYpoPxuk4exGycJ5mWrexZlD0PCoRgnEeggRboRQOZr75tmaRLxhzxlzKzuMWtWhM3g/9s7E3gbq/WPJ6RBoynduvWXLikSwiEzHRUyXOWqFOle5N/kuJeoTCEd199Y5pTkEpquqCN8ZJZSKSEXZR6q25XK9P+e87ir3Z7O3ufs6ezzez8+r/Wud71r+O51zvs7z/OstRm7I2yjQOC6Z317y6CQyARdUQz1ySfOVPS0eLlnlRABERABEUgGAlEKywoeNhv8bpAumbsKB1OQMubKQVVQxl7PLvac0G97ELHF+97SxCPbB2mmEWcg4a1sBWx9n5VBi1Cn5fs9u9hzu4t5jMOV5K1M9LZVhZBCdrhblkA0NGzY0ArQQ/pJfkZGBjlm2OANTYI4MGwwVszzbIMyNxyvcw5bNDdgwADPhsw2ZjHd2RbGbmTxYVQOf9ymVIWEspBza53oIjJRZhB2/aGr5Pjd8Q9NCUbzylEtceUm7xYtWuQZze36Gaiw56BIo/YYMp2kXbvFVEFWWpdQe9icyOcSF7AVcJ8XkWRugSEFsP9ZATccr4SFk/vtLQ+uXLmSntgjfFjYqKw2r3PwH4Tgd72q0qUIRJAAfmqOCFaoqkQgLgT4VRybdgvQjNdLIiKXuMYs5NlvbUHusrqewfOU54vNbyURzMTGw1sW8w9BahgwsJqgAHjHuyaQDhgYMA55Zrq74SZ4s7JIHqcS8VV+nwUd/aGAxRtRhoAbfrURRUQHCHbmU8P9R3C62/2BMkguYuex+pCmCcwqrPDHo4cY4szht60QC6NNUSpEvnuGPdEWXcXc5bm7Ke0iGWFlPk36TNSXpzEPAx4xWOZuw8wDBGqgGwyZ0QViQoFQCuNhRLxaCLmNF5GEoqJm/LmWE+QMZ1xynuSDFA5+Cz0HNKxc5vLzWzjIDwLlg9/1W6EyRUAEREAEYk8ggWLPUVFECNlORax7iiWLElkHWopG8S75+unQCiymi1SXsDcEr4qXKIdnGaSAi6HGdcUtvHuWcMV4ZzvnHU24VogccmX8JkIpjIryfRYxx+GVj4QyFWX5LN/zCiTH8ufkBWrPPU5glkv7TQQvzNZWOOnw4rlttKwSPlAL8/dbp1cmnEMv7PWs1yWi0MyoXvm6FAEREAERSDIC8ddSZogyKwWmF/gipGJplHKfKIKKRfVB7DeuZCIkOnfu7NUNFtkR1+WVGfdLT8uZdYZ9RKPRKwyHRLYRzuWEWjRaUZ0iIAIiIAIi4EUgnj4+T0OU61a8hJTrgBIiEDMCWB9z5gqPWQ/VkAiIgAiIQLYE/MfrZPtY7guwgI4tJc2j52pDSBGoRL6ZqTgrDRxxSNb5QPAZ1kTcx7hQ8eGS9jzY8tT9aCghArEkkBl5nuUliGWjaksEIk7AvlQj4tX6Vhg3u9ScOXOIMU9PTyeYxvOHlg3HybEj68c5M+CaQ2lxSLI5wLfWEMtVvHhx9o+wg7RXtBYhYp5RYr4/wMoRgWgQsL9yvb5QIRoNqU4RiCoBgrBjEzIUNy3lXBsMlW+iZaW9A4rM0s+wo6FEPiGgt1c++aDzxDA1G/PEx6ROZksgZloqbj4+hwDNyGJ+9JNbu+fr+3OFlRABERABERABERCBhCIQfy1lODBEIaowVqGo2CKIfTITCpM6IwIiIAIiIAIiIAJ+CcTfx+e3W8oUgfxGwDZ597tNfH5DofHGnYBmY9w/AnUgIgRWrVrFXowRqSp4JdJSwfnorgiIgAiIgAiIgAgEI5AoPr5gfdQ9ERABERABERABEUhUAtJSifrJqF8iIAIiIAIiIAJ5gUC0vkOGbQbZdTAQAW1CGIiM8kVABERABERABPIWgajES32VdTgQ7ENImn0IXQ4JbULoSUNpEbAda9mRVShEIO4ENBvj/hGoAxEhwL7ntWvXjkhVwSuJil3KSydp27fgn4HuigAE9PbSNEgcApqNifNZqCe5IcA6vthoKcVL5eZj0rMiIAIiIAIiIAL5nYC0VH6fARq/CIiACIiACIhAbghIS+WGnp4VAREQAREQARHI7wSiEnvuBZUtdLWbsxcTXYqAFwH9mHgB0WUcCWg2xhG+mo4ggZjN5FhoqQhyUVUiIAIiIAIiIAIikFAEorKOL6FGqM6IQO4JLF26bOXKlbmvJxFqOPPMM//617RE6In6kDMCmo0546anRCB6BGSXih5b1ZwkBIYMGVaxYtUbbqiWHOOZNGlMkSKFnnjib8kxnPw2Cs3G/PaJa7x5goBiz/PEx6ROxo3AyZOnjh49ljRCCo6dO3evVClJdGHcpkWcGtZsjBN4NSsC2RDw7+M7cuTIsmXLdu3aVTnrKFiwYDbVZHd7w4YNl156aalSpbIrqPsikFgEVq1aWbVq9cTqU657c+LESXbQrVWrVq5rUgUxJaDZGFPcaizhCRw6dAih4rp55ZVXXnjhhXa5devWH3/80dIFChTg1gUXXOBKRjzhxy61du3aMmXK3HrrrU888US1atUuvvjiZ5991jU8Z86cmTNnussQE82aNePBEAv7FktPT2f3Ut985YiACIiACIiACORPAqiRGzyOiy66iKv169dD495773V3KlWqhMa68847//Of/0QJlB8t1a5du2uuuWb37t379u07duzYY4891qtXL/seGDoxd+7cGTNmRKk3gaodMGCAtFQgOMoXAREQAREQgXxLANMUJqhvv/12zZo1pUuXrlq16saNG6HRtm3bE1nH4cOHhwwZMnv27FdeeSVKlLy1FB3atm1bxYoV6RBNFipUqGfPnl27dj158iSXAwcOfOutt5YsWYK+4xJd1bRpU9ezhx56aPTo0e5y7Nix1bOOkSNHukwSCMNHHnmkXLlyaMZnnnnm+PHjdhfBxCVNcOu6667jcctv2bLlDz/8MHz48GHDhnnWo7QIiIAIiIAIiEA+J3BO1oFR6qabbpo1a9b555+PnDAmLFvmwL12zz33kPPdd99FiZV3vNS5555bpUqVF154gQRuvpo1axYtWnTcuHHWPAEWmKx++umnVq1akbNnz56FCxe6nhEUddZZZ9klNXTv3p3vFLz55puffPJJxJDlnzp16rbbbvv4448fffTRs88+u0+fPihKq//LL7/E4lWhQoWHH3541KhRPF6vXr3rr7++TZs2b7zxRo2sw7WlhAiIgAiIgAiIgAh4EiAoCumybt26kiVLopzMQLV//34z9LRu3dqzcATT3lqKqpF1vXv3/nvWwWX9+vV79OhBwBPpRo0alS9fHmH0pz/9KUgnEExPP/10amrqggULKNawYUPSVn7RokVEtaONWrRoQQ5q8vHHH8f4ZvFiyEmciaTvuuuuEiVKQAEthdcTixeaDGkVpFHdEgEREAEREAERyOcE+J4VZAxa6r333kNCOBoYd1xkusuMVMLbx0e9V199Nf3Av/jmm2/i3cOj17x5c9RP6E0SaIUMdO4/BuCexSJFGkVFDBaH7X+4c+dOK4AZzIZavHhxcgjRdw8qIQIiIAIiIAIiIALBCRw9epRgc8pgoPo669i0adOrr776ySefsKIu+LM5vuutpT777LNBgwYR0oR/EQmF9w1HHrWjrrJtw0pS7Pvvv+dsEVck8OVhcLLHiQ4jQUg7xi0OjE/dunXDjWh3XcIudRaBhCWwffu2r77a4rrHT+8XX2w8dOiAy9m3by85BD66HK8E5tuPP/7w+++D+e+5SyXBy3hVq8t8SIC5xDxx/776avMvv/ycYw7ffLNzz57dOX7c74P056OP1vFj4veuMkUgUgSI7SaqG7sMFaIosFFxEITNorq0tLTJkycTpBSptjzr8dZS+BcJb1q6dKkrxL5Qf/jDH1A/LscliEwnbbcsaN1uXXHFFSRWr15tl+gzZJOl2W2BBD67sVkHdi8McRx2V2cRyCsE0tOfadDgJrdy4t13/5maWvvZZwe4/j/5ZFqbNqm85FyOV+LEieMtWjRauzbYZh/Dhw+mWs5ez+pSBDwJ8Hpgnrh/DRpUL1u21OjR6Z5lQk8PGtR35Mhf98EJ/cEgJffv33fHHY35CyRIGd0SgdwTIOqa7zOuU6eOb1U7duxAbBQuXNj3Vu5zvLUUgefInU6dOr3zzjt79+4lHhyb2ObNmy28ifYwMpFpXjlip8jp27cvagnzkusNcess9Js0aRJyCtva3/7267dVYHOjGPFYn376aUZGxt13340n8bzzznPP+k0QVkV5ufz8wlFmXAjcfHN92t28eZO1vnhxBon33ltgK145f/DBknr1GtvfG1Ym3DMvyNdem8GfVpxzY2YIt12Vz6MEBg58bvv2w9u2HVy/fvMtt9z23HOD3PzMoyNSt0UgFALEILGrAHtNsUUAAdasV2vfvj0Pbt++nXyOKVOmEHLN+b777sv93uN+u+StpZBB8+bNwybGajucdKglevncc8/ZekKqIAgdaWUhUJjR8AOyVQF7KBw8eJBLdhe1ZkaMGMGKP3KuvfZacrBs2a3LLrsM8UQMFu7MJk2a8LaYPn26356R6Wrr3LkzFDw1WaBHlC8CsSFQs2ZmFOD69Ws448h7992377//z/j4Nm36nJxt27bgKK9Tpz5pjh07/tWlS4caNSq0a9di/vzfhB5u3PjJXXc1q1Dhcm7ho7Hydl60aAGVjBkzmfPSpe+7W/PmzerTp8eLL07ADnHzzZXHjRthnkSMZPfd15bNdLt163jjjdfwKwVfj3tKiaQnYMu/ke/Fi5ds0aIN4/3hh8xwC44lSzK6dr2fWcEMmTFjmmVy3rXr686d2zP9mITTpk30MqPyJ8GQIU/ffXcrc/n5ncbU8Mc/3kr9zDfqv//+u/buzQwL4eDXe//+vevXr8at999/1zJ1FoEIEjCR0LFjR/QTS+KIwGbd24svvsjPApqJjcfJ53jggQeIL+rXr9/gwdGy8fv/bmN+hLA8sV1n2bJlfR1wOOz4kXPbsRNmTqeLFSvmBYjf71iwEGdXXXWV1y285tirihQpglZjzF53/V7SKKY5rGJ+7ypTBKJEgIWlBw4cqVKlum/9vDlQS6NGTfz0049vv73+4sVr27e/44EHuv35z91nzXolLe0hcq6++ppDhw7WqVP5kkuKd+rUBTvBjBkvjh07pXnz1sePHytTpgTVYkK47rpKEyeOIb1mzRdFi54OLuS1x0/W5Mmv1qlzY8WKlZ9//kXrw8iRw/D6lSlTlgq3bt2MqOrXbyhpV2GHDp3Llbt28uTniVxcvnwDP4P2oDsjAUuUOI8tTlyOEnmCQKDZyG/UcuVKd+/eo2XLtvz23rVr58CBfY8e/XHFik+ZQjt3bkdzs5y6RYvWhOgxYRYtWnXNNeXROvXqVTnnnHOZseTPnPnyyJETWrW6E91/0UUXDxnyf/369Zo6dfz06XPr1m0YaBqj13EpQq9Ll4dR85MmjWvWrNW4cVPJQdO//fa81q3bFSx45uzZM8hZuHD5tdde54Vas9ELiC7zIgE/eyIwDPQNAshXA9kIXSC5XfqKLcvnZ5jNoiztdcZnd+ONN3plBr/0ajR4Yd0VgRgQaNKkKU49Glq2bHHp0pchmxo3vpW/v3kzrVu3qlixEuRwlz/3MSwtW/YROVzu37936tQJaCnrIbpn0KDMuJa6dRu0apVK3BXvHi75437x4vdeeOEl/vBq06bdiBFDiUC/8MKL7CnOCDIUGIkDB/aPHz8KLWW3mjZtZhVWq1YTw9WCBW+1bn2Xe0qJJCYwZsxw/rkBYig9efIEv4cPHNjHrBg9elKRImdjr8JlnJGxEC311ltzMTiZvmnf/n7MTqtXL0dLUQOC7JlnnkRITZs2GyFFTvBp3KvX0926PWZNv/vufBKERiGkevfu17Xro1yWLv27UaOeswI6i0DyEfCvpZJvnBqRCEScACFT/CnPoifeTE2a3Eb95Lz8cqZLbsWKZSgta3HDhvXEPE2YcHof/8OHD23e/IXrjL2ouLzhhiqcd+7cYbdef302id27v8GO9e9/Z3pq3nnnrXbt7rW7nE1Ikahdu+4///n6zz//xFsz6/L0NmwYAGgXmwSZOvIDgbS0Pm3b3s1Iv/328JIl7w0d2r9y5aoo6apVa/TuXXzKlPH/+tdWZiPz84wzMpdEbNmyiRlSvvzpv3j/8Y+3HSUmNmn0Vp06DSwz+DSuUeO0jfOKK648fPggj3z++WecLayQRK1adaWljKTOUSWA7Zb6bbslr4ZSUlLIiZI9PrpaimjxRYve37Jl6y+/HDvrrMJ4DJs0aXTJJZd4jVCXIpAXCdSokRkyhSEKK9Rf/vK/pC2I6vXXZ6Fgevbsa4NCPBUpcs6RI7zAMo/rr7+hUqVfjbIYACwf/z4vNkvjQ5858yUuzfFnmfgNnZb6/e+vskzOtpD22LHjpqUuvvj0z5etMbRMV1iJJCbAR499lAFyrlDhembmG2+8hpb68MPVmDxxCrMYolOnrv379zIISC5czy4s1YtM587dcNgh5TGdciv4ND777HPscVfbDz/8m5ySJS+1/OjtkWj165yfCaCf+JY5CJiQyhYFcoqDYuxDnm3hEAtES0vhv09PH3HqVIF69W5JSbnFerNt29bRo18gPiot7THcfCF2UcVEIDEJlCp1Ke+noUP70T1TUbzMMC8NHvwUOaa0SODp++qrzQMGDLPQwPffX/j11zvJtwMbFf4X0pTBYHDllf9Dmp14+GGxOBUrRvATYbxINFNRJPgRsx+i5cuX8u5EeBEvRWEetEe+/PJzKqSHdqlzviJAuOrXX++wSTht2iT8ywsWfEC8KTFSPXt2NxSXX/57JtKhQweLFStOzsMPP4gnDq8c6bZt2z/11GA8gH37pqWmNmOqB5/GVqHn+fLLM3fGIQwrNfV2EuvWrfa8q7QI5J6ASSinn6pWrf7gg905U7PfCFci8z78cA13SaSnp5PgzKZTJHIvqkKK+6alsI4vvtjUv/+gVq3u7tixm+evctKdOj3UuvU93P38801h1anCIpCABBo2vAW9UqXKTS6SyXKY6pdeWto6TMAvZYYNG8iKJ9btdu/+AJ47Nxb2qWL3hF27vhk9ejh6qEmTW7nFWjzStWr9ukUK8enkv/nmHPfgwIF99uzZPX36FMJTXPQVdydMGM2eVSwJHDz4aSqpXj3TrK0jPxBgDQSOYP5NmDCmVq2KTI877shczcdU/PnnowTq4Y/u0+dxco4cOYJBlCBx0uSw+PSVV6biVi5XLnObGw7bg6dv30GkEfGcg0/jzGd+e+BYRMCNHz+auY3cnzjxtI/7t6V0JQI5IbBixYqs9XltfvnlBOKJuNI1azY9//xLaClUlF8hRTPkU4B/lKQ8T5FGTnFQm1m2ctKbrGcib5f69tvvpk17+aGH/hqoTxdccCF3x44d1qtXT77YOVAx5YtA4hMgCgQ/SIMGTVxXCRAhThxF5XJYP/X443zB5RA2LyCTy0cesR3XCnDZuHHT9u1bkkD3TJgwnUV8RD7Nm/cPAl8KFfp1TznCUHAOvvbaq6zVssI4bthkgfTtt7fs0aMPCTvKl+frwDNDtTBWjRw5sUSJUv+9o/+TnABBThbnxDjR9yihRo0yZwJx5QhulvKRZmUDNidCl3gDMW9HjHjhsce6zJ//JrqHIPGWLTMDz7OOzMn5u99dTlA5cVc4lwNP49MPnH6sQOaDHNjAJk58uUOHP6akXM9lx45/IZLdeQCziugkAjkhgO5BS5mECiSbQqnXVBdyilAK/lEnT+XYQOV/T4RQ+hGozFNP9b/vvq5nnVUkUAHLZ+/BadOeHzDg6eDFdFcE4kuAH7BAeyKE1TFW4bGyiY1/eD95PYi3bvfur/HueYonrzKel+yJwArzDz74mApZu84/u2t7IrB1Aq+9b77ZUbZsuUCvLq1C9+SZh9K5mY1bt35ZqlTp88+/gPHyBUf49WwjWX4V7969C7EeSi8bSS8AAAkJSURBVGhdkGnsFyN/GLBtx2WXXe7C+HyLaTb6MlFOIAJYjzAjmXkpUJmc5ZuiIo5qzpxfzf+hVxVhu9TmzVuKFSuZrZCif5S55JKSbPvJNp6hd1clRSCPEsAJaCv1fPtP2NPVV+fkp+Cqq8r41kYOFbICy+8tZeZbAmhrN3bin1yaX8WBJpIr4xJBprEr45lgFwa34NQzX2kRyAGB6AkpOoM+44yiopUcWKcirKXmz38nNbV1iIxSU5vPnz9XWipEXComAkbgvPOKuuVRv2VSAE8Nb6/fZupKBERABPI8gagKKaNjcgq7F7sn2EK/0KlFOPb8wIGDbtfmbDtBScpnW0wFREAEPAmwWH3u3AWeOZbGZfPRR1sIwPK9pRwREAERSAICJneiNxDqr1atBrot3CYirKVYiBtWD8ItH1blKiwCIiACIiACIpAEBCxMKgYDYXu/kyczN7MN64iwlgoU6xqoT+GWD1SP8kVABERABERABEQglwQwTa1atdKW9YVeVYS11PnnFw29bUoW/e9Gz2E9pcIiIAIiIAIiIAL5hIApG/ZBiMF4bT/PcBuKsJaqXbvWihVLQuzE8uWLKR9iYRUTgbgQOBW2rTcu3Qy30dObAIX7mMrHl4BmY3z5q/X4EmCRXXw7EKT1CGupevXqrl8f6ncFfPTRmvr16wbpnG6JQNwJ1KqVsn792rh3I7Id2LBhbbirVCLbAdWWMwKajTnjpqdEIHQCbHgWemFXMsJainpbtGj+6qtTXAOBEpS5447mge4qXwQShAAhfeecU2jq1HEJ0p9cdoNfE1OmjCtcuGAu69HjcSGg2RgX7Go0QQjgfcuZ0Am9/5i+cubji/y+53R6xoyZe/ceaNu2Q6ABzJr1UunSJdq3bxeogPJFIKEIHD9+8u9/H54ESyVq1qxZsOCZMkol1OwKtzOajeESU/m8ToB4Kb46xkbB9+jl5qtjgqBAqHXp0oGoLOQUu5+H9XsyKlqKvmZkLM7IyGjQoGmFCpU8u75x44YlSxY2adK4UaMGnvlKi4AIiIAIiIAIiIAvAdNSqCjTOmipiG80hZAyo5S1Eq6WivC+5w5B48YN+Dd79pzx44cfP35i3779pUqVLFSoYOXKNwwd+owrpoQIiIAIiIAIiIAIhELAhI654SIop1BR/LPvSw6lG75loqWlrKW2bdvwj3TOvuDGt7vKEQEREAEREAERyJ8EsEitWbPJpA9nk1M5FlXOFgVMKrF6chaSFV0tlT8/bI1aBERABERABEQgSgQQPRbVhJyiCSeqyMw2lMqkkj1o9i2eosJsHww+Fmmp4Hx0VwREQAREQAREILEIIH34hwZycor+TZx4upPII1Imj5ydyXOBnhWIYBi7tFRizQ/1RgREQAREQAREIEQC5pizs+kqHjT9xBn9ZLKJTBKoK0+ZFWIToRSTlgqFksqIgAiIgAiIgAgkNAFTVHHpYuT36ozLMNSoCIiACIiACIiACMSFgLRUXLCrUREQAREQAREQgSQhkFsfHztorVy5MlsY9iXP2RZLSUkJa6fRbCtUAREQAREQAREQARGIKoHcaimkT4jqp0ePHlEdiSoXAREQAREQAREQgdgTkI8v9szVogiIgAiIgAiIQPIQkJZKns9SIxEBERABERABEYg9AWmp2DNXiyIgAiIgAiIgAslDQFoqeT5LjUQEREAEREAERCD2BKSlYs9cLYqACIiACIiACCQPAWmp5PksNRIREAEREAEREIHYE5CWij1ztSgCIiACIiACIpA8BKSlkuez1EhEQAREQAREQARiT0BaKvbM1aIIiIAIiIAIiEDyEJCWSp7PUiMRAREQAREQARGIPQFpqdgzV4siIAIiIAIiIAKJSODDD9fkoFvSUjmApkdEQAREQAREQARiRMC+9nfixDExau+MM0L8omHXH2kph0IJERABERABERCBRCQQrrjJ8RjWr1+TlpYW7uPSUuESU3kREAEREAEREIGYEujRowfeN4ROVFvF9CUfX1QJq3IREAEREAEREIH4EMAuxdGlS4foySlqRkvRCrot3EHKLhUuMZUXAREQAREQARGINYE5c+bQJHInGoFTJqSo31oJd2zSUuESU3kREAEREAEREIE4EEDo4IOLuJyiQixehQsXzJmQAkShOMBQkyIgAiIgAiIgAiIQJgEccHv27Bk+fHh6ejoC6MEHu1OBncOsKbO42aIsQIp48xy49lyjBU6dOuUuopRg2FZzbjoapb6pWhEQAREQAREQgbxFYMWKFStXrkRRWbdNTlWtWr1KlerBB2LhVuiwAgUKrFu3msIWIMU5+IPB70ZdSyGkUlJS6KWNXHIq+OehuyIgAiIgAiIgAiESMGONE1X2FKKKhOkqE09cei7Qq1kz5cwzCyBIcimhXCejq6VskE4/OV3lmldCBERABERABERABHJPwCQH9WC7sdpImGyyS5QTxh3SkZJQVi3nKGopv4YoySmHXgkREAEREAEREIEkIBDFdXz4Mp1FypEih3ynGV2+EiIgAiIgAiIgAiKQFwlES0uhlnyFlAEyOZUXYanPIiACIiACIiACIuBFICpaCiEV3BmJnHJ+Ta8O6VIEREAEREAEREAE8hCByGspRFJwIWV0iP+SnMpDE0VdFQEREAEREAER8EsgwlrKQsv9tuSVaeH0klNeWHQpAiIgAiIgAiKQtwhEUkuZMArFKGWMJKfy1lxRb0VABERABERABHwJRExL2dK8QPHmvg1bjgkvLesLxEf5IiACIiACIiACCU4gMloKMeR3B4RQBm/L+iSnQmGlMiIgAiIgAiIgAolGIDJaKsdCynCEa81KNIjqjwiIgAiIgAiIQL4lEAEtRZhU7sUQzj7FoefbWaiBi4AIiIAIiEDeJZDb75DBNxd6sHnexaSei4AIiIAIiIAIiIBfArnVUn4rVaYIiIAIiIAIiIAI5BMCEfDx5RNSGqYIiIAIiIAIiIAI+BKQlvJlohwREAEREAEREAERCJWAtFSopFROBERABERABERABHwJSEv5MlGOCIiACIiACIiACIRKQFoqVFIqJwIiIAIiIAIiIAK+BP4furHyf0LTpNUAAAAASUVORK5CYII=;fontSize=13;" parent="1" vertex="1">
          <mxGeometry x="240" y="9.999999999999972" width="643" height="324.34" as="geometry" />
        </mxCell>
      </root>
    </mxGraphModel>
  </diagram>
</mxfile>
